<svg width="169" height="26" viewBox="0 0 169 26" fill="none" xmlns="http://www.w3.org/2000/svg">
<path d="M9.99137 3.31833C11.1238 0.591467 15.0242 0.592224 16.1585 3.31833L25.6412 24.9035H19.7025L17.6441 19.8915H8.36489L6.37407 24.9035H0.570312L9.99137 3.31833ZM12.9202 8.12984L10.0183 15.4809H15.8558L12.9202 8.12984Z" fill="white"/>
<path d="M31.4183 3.25144C31.4183 2.14421 32.3247 1.24662 33.4429 1.24662H38.5718L48.7283 17.6862H48.7958V1.24662H54.0597V22.8987C54.0597 24.0059 53.1533 24.9035 52.0351 24.9035H47.1762L36.7497 8.06302H36.6822V24.9035H31.4183V3.25144Z" fill="white"/>
<path d="M77.9303 7.39474C77.4129 6.77102 76.7718 6.29209 76.007 5.95795C75.2646 5.62382 74.3986 5.45675 73.4088 5.45675C72.419 5.45675 71.4967 5.64609 70.6419 6.02478C69.8095 6.40347 69.0785 6.93809 68.4486 7.62864C67.8412 8.29691 67.3576 9.09884 66.9977 10.0344C66.6602 10.97 66.4915 11.9836 66.4915 13.0751C66.4915 14.1889 66.6602 15.2136 66.9977 16.1491C67.3576 17.0624 67.8412 17.8644 68.4486 18.5549C69.056 19.2232 69.7646 19.7467 70.5744 20.1254C71.4067 20.5041 72.2953 20.6934 73.2401 20.6934C74.3198 20.6934 75.2759 20.4706 76.1082 20.0251C76.9405 19.5796 77.6266 18.9559 78.1665 18.154L82.5531 21.3951C81.5408 22.7985 80.2586 23.8343 78.7064 24.5026C77.1542 25.1708 75.5571 25.505 73.9149 25.505C72.0478 25.505 70.3269 25.2154 68.7523 24.6362C67.1776 24.0571 65.8167 23.2328 64.6694 22.1636C63.5222 21.0721 62.6223 19.7578 61.97 18.2208C61.3401 16.6838 61.0252 14.9685 61.0252 13.0751C61.0252 11.1816 61.3401 9.46639 61.97 7.92936C62.6223 6.39233 63.5222 5.0892 64.6694 4.01996C65.8167 2.92844 67.1776 2.0931 68.7523 1.51393C70.3269 0.934757 72.0478 0.645172 73.9149 0.645172C74.5898 0.645172 75.2871 0.711999 76.007 0.845653C76.7493 0.957032 77.4692 1.14638 78.1665 1.41369C78.8864 1.681 79.5725 2.03741 80.2248 2.48293C80.8772 2.92844 81.462 3.4742 81.9794 4.1202L77.9303 7.39474Z" fill="white"/>
<path d="M88.781 1.24662H94.0448V10.0678H104.269V1.24662H109.533V24.9035H104.269V14.6789H94.0448V24.9035H88.781V1.24662Z" fill="white"/>
<path d="M116.477 13.0751C116.477 11.1816 116.792 9.46639 117.421 7.92936C118.074 6.39233 118.974 5.0892 120.121 4.01996C121.268 2.92844 122.629 2.0931 124.204 1.51393C125.778 0.934757 127.499 0.645172 129.366 0.645172C131.233 0.645172 132.954 0.934757 134.529 1.51393C136.104 2.0931 137.465 2.92844 138.612 4.01996C139.759 5.0892 140.648 6.39233 141.278 7.92936C141.93 9.46639 142.256 11.1816 142.256 13.0751C142.256 14.9685 141.93 16.6838 141.278 18.2208C140.648 19.7578 139.759 21.0721 138.612 22.1636C137.465 23.2328 136.104 24.0571 134.529 24.6362C132.954 25.2154 131.233 25.505 129.366 25.505C127.499 25.505 125.778 25.2154 124.204 24.6362C122.629 24.0571 121.268 23.2328 120.121 22.1636C118.974 21.0721 118.074 19.7578 117.421 18.2208C116.792 16.6838 116.477 14.9685 116.477 13.0751ZM121.943 13.0751C121.943 14.1889 122.112 15.2136 122.449 16.1491C122.809 17.0624 123.315 17.8644 123.968 18.5549C124.62 19.2232 125.396 19.7467 126.296 20.1254C127.218 20.5041 128.242 20.6934 129.366 20.6934C130.491 20.6934 131.503 20.5041 132.403 20.1254C133.326 19.7467 134.113 19.2232 134.765 18.5549C135.418 17.8644 135.912 17.0624 136.25 16.1491C136.61 15.2136 136.79 14.1889 136.79 13.0751C136.79 11.9836 136.61 10.97 136.25 10.0344C135.912 9.09884 135.418 8.29691 134.765 7.62864C134.113 6.93809 133.326 6.40347 132.403 6.02478C131.503 5.64609 130.491 5.45675 129.366 5.45675C128.242 5.45675 127.218 5.64609 126.296 6.02478C125.396 6.40347 124.62 6.93809 123.968 7.62864C123.315 8.29691 122.809 9.09884 122.449 10.0344C122.112 10.97 121.943 11.9836 121.943 13.0751Z" fill="white"/>
<path d="M149.208 3.25144C149.208 2.14421 150.115 1.24662 151.233 1.24662H158.454C159.668 1.24662 160.816 1.36914 161.895 1.61417C162.998 1.83693 163.954 2.22675 164.764 2.78365C165.596 3.31827 166.248 4.05337 166.721 4.98896C167.216 5.90226 167.463 7.04947 167.463 8.43057C167.463 10.1013 167.024 11.5269 166.147 12.7075C165.27 13.8659 163.987 14.601 162.3 14.9128L168.374 24.9035H162.064L157.07 15.4474H154.472V24.9035H149.208V3.25144ZM154.472 11.0368H157.576C158.049 11.0368 158.544 11.0257 159.061 11.0034C159.601 10.9589 160.085 10.8586 160.512 10.7027C160.939 10.5245 161.288 10.2572 161.558 9.90077C161.85 9.54436 161.997 9.04315 161.997 8.39716C161.997 7.79571 161.873 7.31678 161.626 6.96036C161.378 6.60395 161.063 6.33664 160.681 6.15843C160.298 5.95795 159.86 5.8243 159.365 5.75747C158.87 5.69064 158.386 5.65723 157.914 5.65723H154.472V11.0368Z" fill="white"/>
</svg>
