<?xml version="1.0" encoding="utf-8"?>
<svg viewBox="0 0 810 62.2" xmlns="http://www.w3.org/2000/svg">
  <path d="M 42.206 4.425 C 39.392 -1.209 31.303 -1.209 28.489 4.425 L 0 62.176 L 14.596 62.176 L 19.169 52.668 L 50.823 52.668 L 55.395 62.176 L 69.991 62.176 L 42.206 4.425 Z M 25.851 39.463 L 35.347 20.272 L 44.668 39.463 L 25.851 39.463 Z" fill="#3650A2"/>
  <path d="M 204.698 0.2 L 204.698 38.407 L 181.133 4.074 L 180.957 3.897 C 178.671 0.904 176.033 0.2 174.098 0.2 L 173.043 0.2 C 170.757 0.2 168.647 1.08 167.064 2.665 C 165.481 4.25 164.602 6.362 164.602 8.651 L 164.602 62 L 178.319 62 L 178.319 23.793 L 202.06 58.479 L 202.06 58.655 C 202.939 59.888 203.994 60.768 205.401 61.296 C 206.456 61.824 207.687 62 208.918 62 L 209.446 62 C 211.38 62 213.315 61.472 214.897 60.064 C 217.008 58.303 218.063 56.014 218.063 53.549 L 218.063 0.024 L 204.698 0.024 L 204.698 0.2 Z" fill="#3650A2"/>
  <path d="M 334.833 15.87 C 337.47 14.285 340.636 13.581 344.329 13.581 C 346.791 13.581 349.077 13.933 350.836 14.461 C 352.77 14.99 356.815 16.926 356.815 16.926 L 362.618 5.482 C 362.618 5.482 356.639 2.489 353.825 1.608 C 350.836 0.728 347.319 0.2 343.45 0.2 C 337.822 0.2 332.546 1.432 327.974 3.897 C 323.402 6.362 319.709 10.06 317.071 14.814 C 314.433 19.391 313.202 25.026 313.202 31.012 C 313.202 37.174 314.433 42.633 317.071 47.21 C 319.709 51.964 323.402 55.662 327.974 58.127 C 332.546 60.592 337.646 61.824 343.45 61.824 C 347.319 61.824 350.66 61.296 353.825 60.416 C 356.815 59.535 362.618 56.542 362.618 56.542 L 356.639 45.097 C 356.639 45.097 352.594 47.034 350.66 47.562 C 348.901 48.091 346.615 48.443 344.153 48.443 C 340.284 48.443 337.119 47.739 334.657 46.154 C 332.019 44.569 330.26 42.632 329.029 39.991 C 327.622 37.35 327.095 34.181 327.095 30.66 C 327.095 27.138 327.798 24.145 329.029 21.328 C 330.436 19.391 332.195 17.278 334.833 15.87 Z" fill="#3650A2"/>
  <path d="M 496.446 0.2 L 496.446 26.786 L 473.936 26.786 L 473.936 0.376 L 460.395 0.2 L 460.395 62.176 L 473.936 62.176 L 473.936 39.815 L 496.446 39.815 L 496.446 62.176 L 510.163 62.176 L 510.163 0.2 L 496.446 0.2 Z" fill="#3650A2"/>
  <path d="M 662.104 15.342 C 659.642 10.588 655.949 6.89 651.552 4.249 C 646.98 1.608 641.704 0.2 635.725 0.2 C 629.746 0.2 624.47 1.608 619.898 4.249 C 615.326 6.89 611.809 10.588 609.347 15.342 C 606.885 19.919 605.654 25.202 605.478 31.188 C 605.654 36.998 606.885 42.456 609.347 47.034 C 611.809 51.788 615.502 55.486 619.898 58.127 C 624.47 60.768 629.746 62.176 635.725 62.176 C 641.704 62.176 646.98 60.768 651.552 58.127 C 656.125 55.486 659.642 51.788 662.104 47.034 C 664.566 42.456 665.797 37.174 665.973 31.188 C 665.797 25.202 664.566 19.919 662.104 15.342 Z M 620.953 40.52 C 619.546 37.879 618.843 34.709 618.843 31.188 C 618.843 27.667 619.546 24.673 620.953 21.856 C 622.184 19.215 624.119 17.102 626.581 15.694 C 629.043 14.109 632.032 13.405 635.549 13.405 C 639.067 13.405 642.056 14.109 644.518 15.694 C 646.98 17.278 648.915 19.215 650.146 21.856 C 651.553 24.497 652.256 27.667 652.256 31.188 C 652.256 34.709 651.553 37.702 650.146 40.52 C 648.915 43.161 646.98 45.097 644.518 46.682 C 642.056 48.267 639.067 48.971 635.549 48.971 C 632.032 48.971 629.043 48.267 626.581 46.682 C 624.119 45.097 622.36 43.161 620.953 40.52 Z" fill="#3650A2"/>
  <path d="M 803.493 33.477 C 804.724 32.42 805.955 31.188 806.834 29.779 C 808.945 26.61 810 23.089 810 19.391 C 810 13.581 807.889 8.827 803.493 5.306 C 799.448 1.96 793.469 0.2 785.731 0.2 L 767.794 0.2 C 765.86 0.2 764.277 0.904 762.87 2.313 C 761.639 3.721 760.936 5.306 760.936 7.242 L 760.936 62.176 L 774.652 62.176 L 774.652 40.167 L 787.314 40.167 C 789.952 40.167 791.886 40.696 792.942 41.752 C 794.173 42.985 795.052 44.393 795.404 45.978 C 795.755 47.915 796.107 50.203 796.107 52.492 L 796.107 62.176 L 809.824 62.176 L 809.824 51.26 C 809.824 47.386 809.12 43.337 807.538 39.287 C 806.483 36.998 805.252 35.061 803.493 33.477 Z M 774.828 13.581 L 785.028 13.581 C 791.183 13.581 793.469 14.813 794.524 15.342 C 795.931 16.398 796.459 17.807 796.459 19.743 C 796.459 21.856 795.755 23.265 793.997 24.497 C 792.062 25.906 789.073 26.61 785.38 26.61 L 774.828 26.61 L 774.828 13.581 Z" fill="#3650A2"/>
</svg>