<svg width="20" height="24" viewBox="0 0 20 24" fill="none" xmlns="http://www.w3.org/2000/svg">
<path d="M4 8L4.001 17.444C4.001 18.305 4.697 19 5.558 19H6V22.542C6 23.346 6.707 24 7.51 24C8.316 24 9 23.346 9 22.541V19H11V22.542C11 23.346 11.707 24 12.511 24C13.317 24 14 23.346 14 22.541V19L14.444 18.999C15.302 18.999 16 18.303 16 17.442V8H4ZM20 9.471C20 8.666 19.305 8 18.5 8C17.695 7.999 17 8.667 17 9.472V15.578C17 16.384 17.694 17 18.5 17C19.305 17 20 16.385 20 15.578V9.471ZM3 9.471C3 8.666 2.305 8 1.5 8C0.695 7.999 0 8.667 0 9.472V15.578C0 16.384 0.694 17 1.5 17C2.305 17 3 16.385 3 15.578V9.471ZM12.951 2.159L13.891 0.3C13.959 0.168 13.872 0 13.728 0C13.662 0 13.598 0.038 13.564 0.105L12.615 1.983C11.084 1.246 9.071 1.171 7.386 1.983L6.436 0.105C6.403 0.038 6.339 0 6.272 0C6.128 0 6.041 0.168 6.109 0.3L7.049 2.159C5.204 3.193 4 4.743 4 6.999H16C16 4.743 14.796 3.193 12.951 2.159ZM7.501 5C7.225 5 7 4.776 7 4.5C7 4.226 7.225 4 7.501 4C7.777 4 8 4.226 8 4.5C8 4.776 7.777 5 7.501 5ZM12.499 5C12.223 5 12 4.776 12 4.5C12 4.226 12.223 4 12.499 4C12.775 4 13 4.226 13 4.5C13 4.776 12.775 5 12.499 5Z" fill="white"/>
</svg>
