<svg xmlns="http://www.w3.org/2000/svg" xmlns:xlink="http://www.w3.org/1999/xlink" width="512" height="512"
     viewBox="0 0 512 512">
  <defs>
    <style>
      .cls-1 {
      fill: #231f20;
    }

      .cls-2 {
      fill: url(#linear-gradient);
    }

      .cls-3 {
      fill: url(#linear-gradient-2);
    }

      .cls-4 {
      fill: url(#linear-gradient-3);
    }

      .cls-5 {
      fill: url(#linear-gradient-4);
    }

      .cls-6 {
      fill: url(#linear-gradient-5);
    }

      .cls-7 {
      fill: url(#linear-gradient-6);
    }

      .cls-8 {
      fill: url(#linear-gradient-7);
    }

      .cls-9 {
      fill: url(#linear-gradient-8);
    }

      .cls-10 {
      fill: url(#linear-gradient-9);
    }

      .cls-11 {
      fill: url(#linear-gradient-10);
    }

      .cls-12 {
      fill: url(#linear-gradient-11);
    }

      .cls-13 {
      fill: url(#linear-gradient-12);
    }

      .cls-14 {
      fill: url(#linear-gradient-13);
    }

      .cls-15 {
      fill: url(#linear-gradient-14);
    }

      .cls-16 {
      fill: url(#linear-gradient-15);
    }

      .cls-17 {
      fill: url(#linear-gradient-16);
    }

      .cls-18 {
      fill: #353786;
    }

      .cls-19 {
      fill: #2c2a70;
    }

      .cls-20 {
      fill: #98daf8;
    }

      .cls-21 {
      fill: #2c2971;
    }

      .cls-22 {
      fill: #fff;
    }

      .cls-23 {
      fill: #9fcfac;
    }

      .cls-24 {
      fill: #0d1627;
    }

      .cls-25 {
      fill: #6cbc9a;
    }

      .cls-26 {
      fill: #8acab0;
    }

      .cls-27 {
      fill: #9ed2bf;
    }

      .cls-28 {
      fill: #c3e5d7;
    }

      .cls-29 {
      fill: #d7ede5;
    }
    </style>
    <linearGradient id="linear-gradient" x1="742.94" y1="1571.79" x2="742.94" y2="1817.02"
                    gradientTransform="translate(378.23 -1532.53) rotate(28.94)" gradientUnits="userSpaceOnUse">
      <stop offset="0" stop-color="#e36b44"/>
      <stop offset="0" stop-color="#e36b44"/>
      <stop offset="0.46" stop-color="#ef9f48"/>
      <stop offset="0.81" stop-color="#f7c04b"/>
      <stop offset="1" stop-color="#facc4c"/>
    </linearGradient>
    <linearGradient id="linear-gradient-2" x1="678.75" y1="1600.84" x2="678.75" y2="1686.75"
                    gradientTransform="translate(378.23 -1532.53) rotate(28.94)" gradientUnits="userSpaceOnUse">
      <stop offset="0" stop-color="#d15334"/>
      <stop offset="0.6" stop-color="#dd6d38"/>
      <stop offset="1" stop-color="#e3793a"/>
    </linearGradient>
    <linearGradient id="linear-gradient-3" x1="690.98" y1="1475.34" x2="690.98" y2="1570.17"
                    gradientTransform="translate(378.23 -1532.53) rotate(28.94)" gradientUnits="userSpaceOnUse">
      <stop offset="0" stop-color="#e36e46"/>
      <stop offset="0.25" stop-color="#eb9870"/>
      <stop offset="0.6" stop-color="#f5cca2"/>
      <stop offset="0.86" stop-color="#fbedc2"/>
      <stop offset="1" stop-color="#fdf9ce"/>
    </linearGradient>
    <linearGradient id="linear-gradient-4" x1="647.16" y1="1636.17" x2="647.16" y2="1738.46"
                    gradientTransform="translate(378.23 -1532.53) rotate(28.94)" gradientUnits="userSpaceOnUse">
      <stop offset="0" stop-color="#92331f"/>
      <stop offset="0.33" stop-color="#af3e29"/>
      <stop offset="0.76" stop-color="#cf4b35"/>
      <stop offset="1" stop-color="#db5039"/>
    </linearGradient>
    <linearGradient id="linear-gradient-5" x1="669.7" y1="1721.7" x2="728.28" y2="1825.89"
                    gradientTransform="translate(378.23 -1532.53) rotate(28.94)" gradientUnits="userSpaceOnUse">
      <stop offset="0" stop-color="#a64224"/>
      <stop offset="0.11" stop-color="#ad4826"/>
      <stop offset="0.68" stop-color="#cd652f"/>
      <stop offset="1" stop-color="#d97033"/>
    </linearGradient>
    <linearGradient id="linear-gradient-6" x1="620.21" y1="1619.68" x2="620.21" y2="1647.08"
                    gradientTransform="translate(378.23 -1532.53) rotate(28.94)" gradientUnits="userSpaceOnUse">
      <stop offset="0" stop-color="#8b1e1b"/>
      <stop offset="1" stop-color="#8d231d"/>
    </linearGradient>
    <linearGradient id="linear-gradient-7" x1="3608.39" y1="1619.68" x2="3608.39" y2="1647.08"
                    gradientTransform="matrix(-0.88, -0.48, -0.48, 0.88, 4293.67, 632.31)"
                    xlink:href="#linear-gradient-6"/>
    <linearGradient id="linear-gradient-8" x1="584.6" y1="1581.1" x2="636.91" y2="1610.85"
                    gradientTransform="translate(378.23 -1532.53) rotate(28.94)" gradientUnits="userSpaceOnUse">
      <stop offset="0" stop-color="#b94e2e"/>
      <stop offset="0.63" stop-color="#d56c35"/>
      <stop offset="1" stop-color="#e17838"/>
    </linearGradient>
    <linearGradient id="linear-gradient-9" x1="742.65" y1="1474.8" x2="620.04" y2="1580.41"
                    gradientTransform="translate(378.23 -1532.53) rotate(28.94)" gradientUnits="userSpaceOnUse">
      <stop offset="0" stop-color="#e37a47"/>
      <stop offset="0.11" stop-color="#e6884c"/>
      <stop offset="0.52" stop-color="#f2bc5c"/>
      <stop offset="0.83" stop-color="#f9dd66"/>
      <stop offset="1" stop-color="#fce96a"/>
    </linearGradient>
    <linearGradient id="linear-gradient-10" x1="4057.43" y1="1600.84" x2="4057.43" y2="1686.75"
                    gradientTransform="matrix(-0.88, -0.48, -0.48, 0.88, 4635.42, 821.26)"
                    xlink:href="#linear-gradient-2"/>
    <linearGradient id="linear-gradient-11" x1="794.91" y1="1475.34" x2="794.91" y2="1570.17"
                    xlink:href="#linear-gradient-3"/>
    <linearGradient id="linear-gradient-12" x1="4025.85" y1="1636.17" x2="4025.85" y2="1738.46"
                    gradientTransform="matrix(-0.88, -0.48, -0.48, 0.88, 4635.42, 821.26)"
                    xlink:href="#linear-gradient-4"/>
    <linearGradient id="linear-gradient-13" x1="4048.38" y1="1721.7" x2="4106.97" y2="1825.89"
                    gradientTransform="matrix(-0.88, -0.48, -0.48, 0.88, 4635.42, 821.26)"
                    xlink:href="#linear-gradient-5"/>
    <linearGradient id="linear-gradient-14" x1="3963.28" y1="1581.1" x2="4015.6" y2="1610.85"
                    gradientTransform="matrix(-0.88, -0.48, -0.48, 0.88, 4635.42, 821.26)"
                    xlink:href="#linear-gradient-8"/>
    <linearGradient id="linear-gradient-15" x1="4121.34" y1="1474.8" x2="3998.73" y2="1580.41"
                    gradientTransform="matrix(-0.88, -0.48, -0.48, 0.88, 4635.42, 821.26)"
                    xlink:href="#linear-gradient-9"/>
    <linearGradient id="linear-gradient-16" x1="744.2" y1="1490.21" x2="744.2" y2="1438.7"
                    gradientTransform="translate(378.23 -1532.53) rotate(28.94)" gradientUnits="userSpaceOnUse">
      <stop offset="0" stop-color="#8d231d"/>
      <stop offset="0.13" stop-color="#962822"/>
      <stop offset="0.69" stop-color="#b63936"/>
      <stop offset="1" stop-color="#c23f3d"/>
    </linearGradient>
  </defs>
  <title>wax logo</title>
  <g id="Worbli">
    <g>
      <g>
        <circle class="cls-18" cx="254.78" cy="250.16" r="147.18"/>
        <g>
          <path class="cls-19" d="M277.49,304.31,259.13,266l-74.07,3.86L165.73,250.2l40.58-20.93L237.63,104A147.22,147.22,0,0,0,129.05,326.75c1.36-5.81,4.11-12.87,9.63-16.32,10.31-6.44,33.09-20.84,34.46-36.07L205,284l34.46,38.65,6.77,24.47-21.77,47.12A147.87,147.87,0,0,0,322,381.18l-52.88-32.75ZM214.36,158.74l-22.22-4.51-6-21.25Z"/>
          <path class="cls-19" d="M206,316.55c-29.16-18.72-57.16,4.3-71,19.24a147.37,147.37,0,0,0,84.28,57.29S247.07,342.92,206,316.55Z"/>
          <path class="cls-19" d="M279.74,210.27l15.46,17.07,24.48-3.54,8.69-17.07c3.54,8.69,13.53,7.4,13.53,7.4l3.22,7.41-28.34,46.38L349,303c-5.47,1.61-17.71,17.39-17.71,17.39l38,22.24A147.22,147.22,0,0,0,297.5,109.32l-2.62,89Z"/>
        </g>
      </g>
      <g>
        <g>
          <path class="cls-20" d="M254.78,442.31c-13.4,0-20.78-6.73-24.61-12.38a37.09,37.09,0,0,1-6-20.14c0-2.19,0-7.31,12.59-33.64,5.95-12.45,12-23.92,12-24a6.71,6.71,0,0,1,11.87,0c.06.12,6.09,11.59,12,24,12.59,26.33,12.59,31.45,12.59,33.64a37,37,0,0,1-6,20.14C275.56,435.58,268.18,442.31,254.78,442.31Z"/>
          <path class="cls-21" d="M254.78,355.24s23.87,45.29,23.87,54.55-4.87,25.81-23.87,25.81S230.92,419,230.92,409.79s23.86-54.55,23.86-54.55m0-13.42A13.42,13.42,0,0,0,242.91,349c-.25.48-6.16,11.7-12.17,24.28-12.22,25.56-13.24,32.26-13.24,36.53a44,44,0,0,0,7.12,23.91C231.32,443.58,242,449,254.78,449s23.46-5.44,30.16-15.32a44,44,0,0,0,7.13-23.91c0-4.27-1-11-13.25-36.53-6-12.58-11.92-23.8-12.16-24.28a13.45,13.45,0,0,0-11.88-7.16Z"/>
        </g>
        <g>
          <g>
            <path class="cls-22" d="M151.66,406.92c-7.57,0-14.74-3.17-20.74-9.17-9.48-9.48-9.93-19.45-8.65-26.16a37,37,0,0,1,10-18.46c1.54-1.54,5.16-5.16,32.68-14.88,13-4.6,25.4-8.44,25.52-8.48a6.71,6.71,0,0,1,8.4,8.4c0,.12-3.88,12.5-8.48,25.51-9.72,27.53-13.34,31.15-14.88,32.69C173.06,398.85,164,406.92,151.66,406.92Z"/>
            <path class="cls-21" d="M192.49,336.18s-15.16,48.9-21.7,55.45c-4,4-11.12,8.58-19.13,8.58-5.18,0-10.72-1.93-16-7.21-13.43-13.43-5.16-28.58,1.38-35.12s55.45-21.7,55.45-21.7m0-13.42a13.51,13.51,0,0,0-4,.6c-.51.16-12.63,3.92-25.77,8.56-26.72,9.43-32.18,13.45-35.2,16.47a44,44,0,0,0-11.87,21.94c-2.25,11.73,1.48,23.15,10.49,32.16,7.29,7.29,16.1,11.14,25.49,11.14a37.86,37.86,0,0,0,17.1-4.23,44.89,44.89,0,0,0,11.52-8.28c3-3,7-8.48,16.47-35.2,4.64-13.14,8.4-25.26,8.56-25.77a13.42,13.42,0,0,0-12.82-17.39Zm0,26.84Z"/>
          </g>
          <g>
            <path class="cls-23" d="M98.83,318.76c-13.93,0-24.39-7.6-28.69-20.85-4.14-12.75,0-21.85,4.17-27.23a37,37,0,0,1,17.31-11.9,26.6,26.6,0,0,1,8-.91c16.47,0,52.9,6.25,54.44,6.52a6.71,6.71,0,0,1,3.67,11.29c-.09.09-9.13,9.38-19.14,18.89-21.15,20.11-26,21.69-28.1,22.36A38,38,0,0,1,98.83,318.76Z"/>
            <path class="cls-21" d="M99.65,264.58c16.08,0,53.3,6.42,53.3,6.42s-35.7,36.69-44.51,39.55a31.51,31.51,0,0,1-9.61,1.5c-8.47,0-18.19-3.55-22.31-16.22C70.65,277.77,84.89,268,93.7,265.16a21.77,21.77,0,0,1,6-.58m0-13.42v0a32.47,32.47,0,0,0-10.1,1.23A44,44,0,0,0,69,266.56C61.68,276,59.82,287.85,63.76,300c2.85,8.78,8.12,15.74,15.23,20.13a37.64,37.64,0,0,0,19.84,5.36,45.07,45.07,0,0,0,13.76-2.15c4.06-1.32,10.12-4.37,30.65-23.89,10.1-9.6,19-18.69,19.33-19.07a13.43,13.43,0,0,0-7.34-22.59c-1.57-.27-38.54-6.61-55.58-6.61Z"/>
          </g>
          <g>
            <path class="cls-20" d="M164.25,206.55c-.13,0-13.09,0-26.89-.56-29.16-1.15-33.69-3.54-35.62-4.56a37,37,0,0,1-15-14.67c-3.21-6-5.72-15.69.53-27.55,5.51-10.43,14.7-16.18,25.89-16.18a38,38,0,0,1,17.14,4.31c1.94,1,6.47,3.41,23.88,26.83,8.24,11.08,15.57,21.77,15.65,21.87a6.72,6.72,0,0,1-5.54,10.51Z"/>
            <path class="cls-21" d="M113.12,149.74a31.08,31.08,0,0,1,14,3.54c8.19,4.32,37.12,46.55,37.12,46.55s-51.2,0-59.38-4.33-20.56-16.35-11.7-33.15c5.06-9.61,12.76-12.61,20-12.61m0-13.42v0h0a34.93,34.93,0,0,0-17.37,4.43A36.94,36.94,0,0,0,81.3,156.08c-6,11.28-6.13,23.3-.52,33.83a44,44,0,0,0,17.83,17.46c3.77,2,10.17,4.21,38.49,5.33,13.92.54,26.61.56,27.14.56h0a13.42,13.42,0,0,0,11.07-21c-.3-.44-7.47-10.9-15.79-22.08-16.91-22.74-22.36-26.77-26.14-28.76a44.4,44.4,0,0,0-20.26-5.09Z"/>
          </g>
          <g>
            <path class="cls-22" d="M222.19,158.42a6.68,6.68,0,0,1-4.05-1.36c-.11-.08-10.44-7.9-21.12-16.65-22.57-18.5-24.74-23.14-25.67-25.12a37.09,37.09,0,0,1-3.15-20.77c1.08-6.74,4.9-16,17-21.65a31.6,31.6,0,0,1,13.44-3.18c13.91,0,23.8,10.58,28.05,19.65.93,2,3.1,6.62,2.88,35.8-.11,13.81-.71,26.75-.71,26.88a6.7,6.7,0,0,1-6.7,6.4Z"/>
            <path class="cls-21" d="M198.67,76.4c11.32,0,18.92,9.27,22,15.79,3.92,8.38,1.53,59.52,1.53,59.52s-40.83-30.89-44.75-39.27S170.88,87,188.08,78.94a24.85,24.85,0,0,1,10.59-2.54m0-13.42h0a38.2,38.2,0,0,0-16.28,3.81c-11.55,5.41-18.94,14.88-20.81,26.68a44,44,0,0,0,3.69,24.67c1.82,3.87,5.58,9.5,27.5,27.46,10.78,8.83,20.89,16.49,21.32,16.81a13.42,13.42,0,0,0,21.5-10.07c0-.54.61-13.21.72-27.15.22-28.33-1.7-34.83-3.51-38.7a45.06,45.06,0,0,0-11.37-14.88A34.91,34.91,0,0,0,198.67,63Z"/>
          </g>
        </g>
      </g>
      <g>
        <g>
          <path class="cls-22" d="M360.34,406.92c-12.37,0-21.4-8.07-23.88-10.55-1.54-1.54-5.16-5.16-14.88-32.69-4.6-13-8.44-25.39-8.48-25.51a6.72,6.72,0,0,1,8.4-8.4c.12,0,12.5,3.88,25.52,8.48,27.52,9.72,31.14,13.34,32.68,14.88a37,37,0,0,1,10,18.46c1.28,6.71.83,16.68-8.65,26.16-6,6-13.17,9.17-20.74,9.17Z"/>
          <path class="cls-21" d="M319.51,336.18s48.91,15.15,55.45,21.7,14.81,21.69,1.38,35.12c-5.28,5.28-10.82,7.21-16,7.21-8,0-15.16-4.61-19.13-8.58-6.54-6.55-21.7-55.45-21.7-55.45m0-13.42a13.42,13.42,0,0,0-12.82,17.39c.16.51,3.92,12.63,8.56,25.77,9.44,26.72,13.45,32.18,16.47,35.2a44.89,44.89,0,0,0,11.52,8.28,37.86,37.86,0,0,0,17.1,4.23c9.39,0,18.2-3.85,25.49-11.14,9-9,12.74-20.43,10.49-32.16a44,44,0,0,0-11.87-21.94c-3-3-8.48-7-35.2-16.47-13.14-4.64-25.26-8.4-25.77-8.56a13.51,13.51,0,0,0-4-.6Z"/>
        </g>
        <g>
          <path class="cls-23" d="M413.17,318.76a38,38,0,0,1-11.69-1.83c-2.08-.67-7-2.25-28.1-22.36-10-9.51-19.05-18.8-19.14-18.89a6.71,6.71,0,0,1,3.67-11.29c1.54-.27,38-6.52,54.44-6.52a26.6,26.6,0,0,1,8,.91,37,37,0,0,1,17.31,11.9c4.19,5.38,8.31,14.48,4.17,27.23-4.3,13.25-14.76,20.85-28.69,20.85Z"/>
          <path class="cls-21" d="M412.35,264.58a21.77,21.77,0,0,1,5.95.58c8.81,2.86,23.05,12.61,17.18,30.67-4.12,12.67-13.84,16.22-22.31,16.22a31.51,31.51,0,0,1-9.61-1.5c-8.81-2.86-44.51-39.55-44.51-39.55s37.22-6.42,53.3-6.42m0-13.42c-17,0-54,6.34-55.58,6.61a13.43,13.43,0,0,0-7.34,22.59c.37.38,9.23,9.47,19.33,19.07C389.29,319,395.35,322,399.41,323.32a45.07,45.07,0,0,0,13.76,2.15A37.64,37.64,0,0,0,433,320.11c7.11-4.39,12.38-11.35,15.23-20.13,3.94-12.13,2.08-24-5.25-33.42a44,44,0,0,0-20.54-14.17,32.47,32.47,0,0,0-10.1-1.23Z"/>
        </g>
        <g>
          <path class="cls-20" d="M347.75,206.55A6.72,6.72,0,0,1,342.21,196c.08-.1,7.41-10.79,15.64-21.87,17.42-23.42,21.95-25.81,23.89-26.83A38,38,0,0,1,398.88,143c11.19,0,20.38,5.75,25.89,16.19,6.25,11.85,3.74,21.52.53,27.54a37,37,0,0,1-15,14.67c-1.93,1-6.46,3.41-35.62,4.56-13.8.54-26.76.56-26.89.56Z"/>
          <path class="cls-21" d="M398.88,149.74c7.19,0,14.89,3,19.95,12.61,8.86,16.8-3.51,28.83-11.7,33.15s-59.38,4.33-59.38,4.33,28.93-42.23,37.12-46.55a31.08,31.08,0,0,1,14-3.54m0-13.42a44.41,44.41,0,0,0-20.27,5.09c-3.78,2-9.23,6-26.14,28.76-8.32,11.18-15.49,21.64-15.79,22.08a13.42,13.42,0,0,0,11.07,21h0c.53,0,13.22,0,27.14-.56,28.32-1.12,34.72-3.34,38.49-5.33a44,44,0,0,0,17.83-17.46c5.61-10.53,5.43-22.55-.52-33.83a36.94,36.94,0,0,0-14.45-15.33,34.93,34.93,0,0,0-17.37-4.43Z"/>
        </g>
        <g>
          <path class="cls-22" d="M289.81,158.42a6.7,6.7,0,0,1-6.7-6.4c0-.13-.6-13.07-.71-26.88-.22-29.18,2-33.82,2.88-35.8,4.25-9.07,14.14-19.65,28.05-19.65a31.6,31.6,0,0,1,13.44,3.18c12.13,5.68,16,14.91,17,21.65a37.09,37.09,0,0,1-3.15,20.77c-.93,2-3.1,6.62-25.67,25.12-10.68,8.75-21,16.57-21.12,16.65A6.68,6.68,0,0,1,289.81,158.42Z"/>
          <path class="cls-21" d="M313.33,76.4a24.85,24.85,0,0,1,10.59,2.54c17.2,8.06,14.58,25.12,10.65,33.5s-44.75,39.27-44.75,39.27-2.39-51.14,1.53-59.52c3.06-6.52,10.66-15.79,22-15.79m0-13.42a34.91,34.91,0,0,0-22.76,8.63A45.06,45.06,0,0,0,279.2,86.49c-1.81,3.87-3.73,10.37-3.51,38.7.11,13.94.69,26.61.72,27.15a13.42,13.42,0,0,0,21.5,10.07c.43-.32,10.54-8,21.32-16.81,21.92-18,25.68-23.59,27.5-27.46a44,44,0,0,0,3.69-24.67c-1.87-11.8-9.26-21.27-20.81-26.68A38.23,38.23,0,0,0,313.33,63Z"/>
        </g>
      </g>
      <path class="cls-22" d="M337.9,219.82c-14.77,0-26.3,31-30.36,39.94s-15.41,12.67-24.67-10.87-14.94-30-28.09-30-18.83,6.49-28.09,30-20.61,19.8-24.67,10.87-15.59-39.94-30.36-39.94-10.23,10.23-10.23,10.23,1.14,4.71,10.23,4.71,17.7,46.76,37,46.76,27.12-16.89,29.88-24.68,7.46-23.22,16.23-23.22,13.48,15.43,16.24,23.22,10.55,24.68,29.87,24.68,27.92-46.76,37-46.76,10.23-4.71,10.23-4.71S352.68,219.82,337.9,219.82Z"/>
    </g>
  </g>
</svg>
