<svg xmlns="http://www.w3.org/2000/svg" xmlns:xlink="http://www.w3.org/1999/xlink" width="512" height="512" viewBox="0 0 512 512">
    <defs>
        <style>
            .cls-1 {
            fill: #231f20;
            }

            .cls-2 {
            fill: url(#linear-gradient);
            }

            .cls-3 {
            fill: url(#linear-gradient-2);
            }

            .cls-4 {
            fill: url(#linear-gradient-3);
            }

            .cls-5 {
            fill: url(#linear-gradient-4);
            }

            .cls-6 {
            fill: url(#linear-gradient-5);
            }

            .cls-7 {
            fill: url(#linear-gradient-6);
            }

            .cls-8 {
            fill: url(#linear-gradient-7);
            }

            .cls-9 {
            fill: url(#linear-gradient-8);
            }

            .cls-10 {
            fill: url(#linear-gradient-9);
            }

            .cls-11 {
            fill: url(#linear-gradient-10);
            }

            .cls-12 {
            fill: url(#linear-gradient-11);
            }

            .cls-13 {
            fill: url(#linear-gradient-12);
            }

            .cls-14 {
            fill: url(#linear-gradient-13);
            }

            .cls-15 {
            fill: url(#linear-gradient-14);
            }

            .cls-16 {
            fill: url(#linear-gradient-15);
            }

            .cls-17 {
            fill: url(#linear-gradient-16);
            }

            .cls-18 {
            fill: #353786;
            }

            .cls-19 {
            fill: #2c2a70;
            }

            .cls-20 {
            fill: #98daf8;
            }

            .cls-21 {
            fill: #2c2971;
            }

            .cls-22 {
            fill: #fff;
            }

            .cls-23 {
            fill: #9fcfac;
            }

            .cls-24 {
            fill: #0d1627;
            }

            .cls-25 {
            fill: #6cbc9a;
            }

            .cls-26 {
            fill: #8acab0;
            }

            .cls-27 {
            fill: #9ed2bf;
            }

            .cls-28 {
            fill: #c3e5d7;
            }

            .cls-29 {
            fill: #d7ede5;
            }
        </style>
        <linearGradient id="linear-gradient" x1="742.94" y1="1571.79" x2="742.94" y2="1817.02" gradientTransform="translate(378.23 -1532.53) rotate(28.94)" gradientUnits="userSpaceOnUse">
            <stop offset="0" stop-color="#e36b44"/>
            <stop offset="0" stop-color="#e36b44"/>
            <stop offset="0.46" stop-color="#ef9f48"/>
            <stop offset="0.81" stop-color="#f7c04b"/>
            <stop offset="1" stop-color="#facc4c"/>
        </linearGradient>
        <linearGradient id="linear-gradient-2" x1="678.75" y1="1600.84" x2="678.75" y2="1686.75" gradientTransform="translate(378.23 -1532.53) rotate(28.94)" gradientUnits="userSpaceOnUse">
            <stop offset="0" stop-color="#d15334"/>
            <stop offset="0.6" stop-color="#dd6d38"/>
            <stop offset="1" stop-color="#e3793a"/>
        </linearGradient>
        <linearGradient id="linear-gradient-3" x1="690.98" y1="1475.34" x2="690.98" y2="1570.17" gradientTransform="translate(378.23 -1532.53) rotate(28.94)" gradientUnits="userSpaceOnUse">
            <stop offset="0" stop-color="#e36e46"/>
            <stop offset="0.25" stop-color="#eb9870"/>
            <stop offset="0.6" stop-color="#f5cca2"/>
            <stop offset="0.86" stop-color="#fbedc2"/>
            <stop offset="1" stop-color="#fdf9ce"/>
        </linearGradient>
        <linearGradient id="linear-gradient-4" x1="647.16" y1="1636.17" x2="647.16" y2="1738.46" gradientTransform="translate(378.23 -1532.53) rotate(28.94)" gradientUnits="userSpaceOnUse">
            <stop offset="0" stop-color="#92331f"/>
            <stop offset="0.33" stop-color="#af3e29"/>
            <stop offset="0.76" stop-color="#cf4b35"/>
            <stop offset="1" stop-color="#db5039"/>
        </linearGradient>
        <linearGradient id="linear-gradient-5" x1="669.7" y1="1721.7" x2="728.28" y2="1825.89" gradientTransform="translate(378.23 -1532.53) rotate(28.94)" gradientUnits="userSpaceOnUse">
            <stop offset="0" stop-color="#a64224"/>
            <stop offset="0.11" stop-color="#ad4826"/>
            <stop offset="0.68" stop-color="#cd652f"/>
            <stop offset="1" stop-color="#d97033"/>
        </linearGradient>
        <linearGradient id="linear-gradient-6" x1="620.21" y1="1619.68" x2="620.21" y2="1647.08" gradientTransform="translate(378.23 -1532.53) rotate(28.94)" gradientUnits="userSpaceOnUse">
            <stop offset="0" stop-color="#8b1e1b"/>
            <stop offset="1" stop-color="#8d231d"/>
        </linearGradient>
        <linearGradient id="linear-gradient-7" x1="3608.39" y1="1619.68" x2="3608.39" y2="1647.08" gradientTransform="matrix(-0.88, -0.48, -0.48, 0.88, 4293.67, 632.31)" xlink:href="#linear-gradient-6"/>
        <linearGradient id="linear-gradient-8" x1="584.6" y1="1581.1" x2="636.91" y2="1610.85" gradientTransform="translate(378.23 -1532.53) rotate(28.94)" gradientUnits="userSpaceOnUse">
            <stop offset="0" stop-color="#b94e2e"/>
            <stop offset="0.63" stop-color="#d56c35"/>
            <stop offset="1" stop-color="#e17838"/>
        </linearGradient>
        <linearGradient id="linear-gradient-9" x1="742.65" y1="1474.8" x2="620.04" y2="1580.41" gradientTransform="translate(378.23 -1532.53) rotate(28.94)" gradientUnits="userSpaceOnUse">
            <stop offset="0" stop-color="#e37a47"/>
            <stop offset="0.11" stop-color="#e6884c"/>
            <stop offset="0.52" stop-color="#f2bc5c"/>
            <stop offset="0.83" stop-color="#f9dd66"/>
            <stop offset="1" stop-color="#fce96a"/>
        </linearGradient>
        <linearGradient id="linear-gradient-10" x1="4057.43" y1="1600.84" x2="4057.43" y2="1686.75" gradientTransform="matrix(-0.88, -0.48, -0.48, 0.88, 4635.42, 821.26)" xlink:href="#linear-gradient-2"/>
        <linearGradient id="linear-gradient-11" x1="794.91" y1="1475.34" x2="794.91" y2="1570.17" xlink:href="#linear-gradient-3"/>
        <linearGradient id="linear-gradient-12" x1="4025.85" y1="1636.17" x2="4025.85" y2="1738.46" gradientTransform="matrix(-0.88, -0.48, -0.48, 0.88, 4635.42, 821.26)" xlink:href="#linear-gradient-4"/>
        <linearGradient id="linear-gradient-13" x1="4048.38" y1="1721.7" x2="4106.97" y2="1825.89" gradientTransform="matrix(-0.88, -0.48, -0.48, 0.88, 4635.42, 821.26)" xlink:href="#linear-gradient-5"/>
        <linearGradient id="linear-gradient-14" x1="3963.28" y1="1581.1" x2="4015.6" y2="1610.85" gradientTransform="matrix(-0.88, -0.48, -0.48, 0.88, 4635.42, 821.26)" xlink:href="#linear-gradient-8"/>
        <linearGradient id="linear-gradient-15" x1="4121.34" y1="1474.8" x2="3998.73" y2="1580.41" gradientTransform="matrix(-0.88, -0.48, -0.48, 0.88, 4635.42, 821.26)" xlink:href="#linear-gradient-9"/>
        <linearGradient id="linear-gradient-16" x1="744.2" y1="1490.21" x2="744.2" y2="1438.7" gradientTransform="translate(378.23 -1532.53) rotate(28.94)" gradientUnits="userSpaceOnUse">
            <stop offset="0" stop-color="#8d231d"/>
            <stop offset="0.13" stop-color="#962822"/>
            <stop offset="0.69" stop-color="#b63936"/>
            <stop offset="1" stop-color="#c23f3d"/>
        </linearGradient>
    </defs>
    <title>lynx logo</title>
    <g id="Lynx">
        <g>
            <path class="cls-30" d="M411.37,193.35c5-12.3-5-17.76-13.21-19.13s-19.59-10.94-29.62-20.05-30.08-42.83-85.66-42.83c0,0-34.62-44.19-69.7-65.15,0,0,13.21,26.43,5,87.48,0,0-65.15,53.31-65.15,106.16,0,114.81,113,93.91,154.45,165.84,0,0,3.19,1.36,2.74-21.42S301.11,371,301.11,325c0-40.09,28.93-69.13,39.36-72.66,8.2-2.78,11.67,3.41,24.88,4.32S406.36,205.66,411.37,193.35Z"/>
            <path class="cls-30" d="M161.63,330.38c-40.55-28.7-35.93-98.76-14.51-127C83.81,266.2,86.68,308.65,103.84,351.91c10.47,26.42,93.33,66.51,93.33,66.51,48.68,23.7,52,47.39,52,47.39s9.57-36.45,12.76-60.13S202.18,359.08,161.63,330.38Z"/>
            <path class="cls-30" d="M413.59,407.52c-5.3,13.49-9.82,18.79-17.77,18.79H380.76c-9.31,0-9.7-11.86-9.71-20.66V341.48c0-4.61,11.62-7.77,11.62-7.77v-6.38H344.85v6.38c6.69,0,11.85,5,11.85,7.77V417.6c0,6.41-9.74,10.16-11.85,10.16v6.84h71.82v-6.84c0-4.78,2.05-20.24,2.05-20.24Z"/>
        </g>
    </g>
</svg>
