<svg width="204" height="152" viewBox="0 0 204 152" fill="none" xmlns="http://www.w3.org/2000/svg">
<path d="M203.68 62.6682C203.581 61.997 203.468 61.3778 203.336 60.7702C203.27 60.4577 203.19 60.1336 203.111 59.8153L202.885 58.9704C202.302 56.6962 201.58 54.393 200.753 52.1246C199.878 49.7115 198.957 47.5298 197.951 45.4523C193.745 36.61 187.459 28.4795 179.775 21.9403C172.237 15.5169 162.832 10.2277 152.571 6.64565C143.02 3.31242 132.515 1.21179 121.347 0.407417C111.432 -0.321727 100.754 -0.0728907 89.6063 1.15971C79.5118 2.30551 69.1258 4.20939 58.7199 6.82505C53.401 8.14445 48.3339 9.75898 43.6443 11.6339C38.7361 13.5899 34.0068 15.9104 29.5887 18.5376C20.0042 24.2203 12.3935 31.0546 6.95545 38.8553C3.82905 43.3922 1.71608 47.987 0.68278 52.5123C0.0800211 55.1858 -0.125318 57.7841 0.0733936 60.232C0.318472 63.0907 1.11332 65.7411 2.43806 68.1137C3.1468 69.3926 4.02114 70.602 5.02794 71.6957C5.2664 71.9562 5.53135 72.2455 5.83604 72.5175C6.16723 72.8415 6.51166 73.1309 6.77661 73.3508C7.37274 73.8369 8.04836 74.3056 8.83659 74.7801C10.1282 75.5382 11.6119 76.1921 13.2414 76.7303C14.5197 77.1412 15.871 77.4942 17.507 77.8414C18.8914 78.1307 20.2426 78.368 21.468 78.5879C22.7332 78.8136 23.9321 79.0277 25.078 79.2765C27.2174 79.7395 28.9264 80.2777 30.2908 80.9258C32.3773 82.9049 34.7089 84.8377 37.206 86.6606C39.7495 88.5239 42.5447 90.3005 45.5188 91.944C48.3074 93.4775 51.3278 94.9242 54.5006 96.2378C57.5011 97.4646 60.6805 98.5757 63.9593 99.5479C70.3313 101.405 76.9683 102.69 83.6913 103.373C90.3945 104.056 97.1508 104.189 103.761 103.778C110.61 103.338 117.254 102.355 123.507 100.844C130.336 99.1718 136.582 96.9265 142.073 94.1719C145.14 92.6326 147.948 90.9428 150.419 89.1489C153.088 87.2277 155.486 85.0634 157.526 82.7081C159.705 80.1851 161.381 77.5347 162.5 74.8264C163.686 72.0372 164.295 69.0569 164.315 65.9725L164.322 64.9541L160.745 64.821L160.646 65.8337C160.394 68.4262 159.639 70.9608 158.4 73.3739C157.248 75.6366 155.618 77.8356 153.558 79.8957C151.71 81.7475 149.525 83.472 146.875 85.1791C144.557 86.6664 141.934 88.0494 139.079 89.2994C133.906 91.5505 128.057 93.3039 121.692 94.5191C115.816 95.6534 109.643 96.2957 103.351 96.4172C91.0039 96.6834 78.5182 94.9126 67.2645 91.3074C55.5869 87.5749 45.128 81.7591 37.0073 74.4792L36.4377 73.9873L35.8813 73.7096C32.735 72.205 29.5556 71.5337 27.138 71.1229C25.7139 70.874 24.3295 70.683 22.9584 70.4921C21.7396 70.3243 20.5871 70.1622 19.4809 69.9713C18.2158 69.7514 17.1692 69.5257 16.2817 69.2653C15.308 68.9817 14.4469 68.6403 13.7315 68.2526C13.3142 68.0211 12.9897 67.8128 12.7048 67.5986C12.5525 67.4829 12.4068 67.373 12.2743 67.2514L12.2213 67.2051C12.1021 67.1126 11.9696 66.9737 11.7974 66.8001C11.1748 66.1693 10.625 65.4633 10.168 64.711C9.27376 63.2354 8.70411 61.5109 8.47228 59.5954C8.26694 57.8015 8.35968 55.8571 8.75048 53.8144C9.45922 50.1455 11.135 46.2856 13.7183 42.3332C16.0366 38.7917 18.9974 35.3774 22.508 32.1889C25.8529 29.145 29.6351 26.321 33.7484 23.8095C41.6307 19.0122 50.6919 15.297 60.6871 12.7681C71.199 10.112 80.9557 8.30648 90.5005 7.24749C95.6472 6.68616 100.741 6.33895 105.629 6.21164C111.047 6.10747 115.989 6.24057 120.738 6.6225C122.91 6.78453 125.282 7.03916 128.19 7.42688C130.846 7.80881 133.257 8.22546 135.549 8.6942C138.224 9.25553 140.583 9.82264 142.755 10.4303C145.186 11.1189 147.537 11.877 149.75 12.6756C159.169 16.1072 167.402 20.8755 174.224 26.8476C181.02 32.8196 186.538 40.2152 190.181 48.2416C191.055 50.1281 191.85 52.1188 192.612 54.3294C193.327 56.4069 193.943 58.5133 194.44 60.5965L194.632 61.3778C194.685 61.6266 194.738 61.8581 194.785 62.1069C194.871 62.5583 194.943 63.0328 195.01 63.5594C195.122 64.4969 195.182 65.4922 195.175 66.5165C195.162 68.4725 194.897 70.4631 194.394 72.4365C193.387 76.412 191.446 80.0809 188.783 83.0438C187.406 84.5773 185.856 85.8909 184.187 86.9441C182.491 88.0147 180.636 88.8422 178.682 89.392C178.159 89.5366 177.675 89.6582 177.165 89.7623C176.934 89.8086 176.695 89.8607 176.437 89.9012L175.251 90.1269C173.185 90.5956 171.343 91.4231 169.76 92.5863C168.011 93.8652 166.667 95.5897 165.971 97.4415L165.68 98.2054C165.6 98.4137 165.508 98.6162 165.415 98.8188C165.236 99.2123 165.031 99.6115 164.806 100.005C163.116 102.974 160.262 105.549 156.307 107.644C154.545 108.587 152.565 109.432 150.253 110.23C148.233 110.936 146.047 111.55 143.576 112.123C141.391 112.632 139.086 113.06 136.535 113.436C134.217 113.784 131.78 114.067 129.296 114.275C126.852 114.49 124.388 114.634 121.957 114.709C120.718 114.75 119.512 114.773 118.373 114.779C117.784 114.565 117.227 114.374 116.671 114.2C113.16 113.118 110.08 112.649 106.947 112.736C106.099 112.754 105.192 112.835 104.179 112.985C103.715 113.054 103.258 113.147 102.781 113.251L101.754 113.517C101.642 113.546 101.476 113.598 101.35 113.639C101.165 113.703 100.926 113.789 100.575 113.946C100.29 114.084 99.8599 114.287 99.2439 114.762C98.714 115.201 97.4819 116.231 97.2501 118.367C97.1574 119.825 97.6542 121.127 98.7338 122.244C99.2637 122.771 99.628 122.996 99.893 123.164L99.9923 123.228C100.516 123.534 100.847 123.668 101.092 123.766L101.171 123.801C101.463 123.911 101.681 123.986 101.847 124.032C102.523 124.235 102.973 124.333 103.47 124.431C104.364 124.611 105.139 124.721 105.841 124.813C108.411 125.137 111.074 125.34 114.22 125.438C115.472 125.479 116.757 125.502 118.029 125.508C118.439 125.676 118.85 125.849 119.248 126.029C123.103 127.736 127.097 129.964 131.462 132.845C135.409 135.45 139.238 138.308 142.835 141.341C144.755 142.955 146.451 144.506 148.021 146.068C148.988 147.041 149.73 147.839 150.372 148.586C151.181 149.523 151.83 150.38 152.353 151.219L152.843 152L155.718 151.149L155.532 150.247C155.307 149.159 154.91 148.019 154.287 146.653C153.77 145.542 153.181 144.442 152.532 143.378C151.353 141.427 149.948 139.448 148.24 137.319C145.219 133.575 141.675 129.946 137.701 126.532C136.86 125.82 136.006 125.12 135.164 124.455C136.363 124.298 137.555 124.13 138.715 123.94C141.497 123.488 144.226 122.927 146.829 122.273C153.015 120.699 158.162 118.691 162.567 116.133C165.236 114.582 167.581 112.84 169.535 110.948C171.707 108.847 173.456 106.509 174.715 103.998C175.039 103.35 175.331 102.696 175.582 102.054C175.708 101.724 175.834 101.394 175.953 101.047L176.231 100.173C176.298 99.9414 176.47 99.7042 176.722 99.49C177.053 99.2123 177.523 98.9808 177.993 98.8419L178.715 98.6799C179.1 98.5989 179.477 98.5121 179.855 98.4137C180.577 98.2343 181.305 98.0202 182.08 97.7713C184.988 96.8165 187.704 95.4682 190.155 93.761C192.499 92.1349 194.599 90.2021 196.401 88.0263C199.746 83.9812 202.037 79.2708 203.217 74.0221C203.766 71.5453 204.025 69.0107 203.998 66.476C203.958 65.1624 203.859 63.8835 203.68 62.6682Z" fill="black" fill-opacity="0.1"/>
</svg>
