<svg id="Layer_1" data-name="Layer 1" xmlns="http://www.w3.org/2000/svg" width="1148" height="874.22" viewBox="0 0 1148 874.22">
  <defs>
    <style>
      .cls-1 {
        fill: #fff;
        opacity: 0.1;
        isolation: isolate;
      }
    </style>
  </defs>
  <title>Brain-Large2</title>
  <path class="cls-1" d="M1140.22,368.58c-.55-3.8-1.18-7.3-1.92-10.73-.37-1.77-.81-3.6-1.25-5.4l-1.26-4.78c-3.24-12.86-7.26-25.88-11.87-38.71a393.86,393.86,0,0,0-15.61-37.72c-23.42-50-58.42-96-101.21-132.94-42-36.32-94.35-66.23-151.49-86.48C802.43,33,743.93,21.09,681.74,16.54,626.52,12.42,567.06,13.83,505,20.8a1300.7,1300.7,0,0,0-172,32A638.45,638.45,0,0,0,249,80a552.93,552.93,0,0,0-78.27,39C117.4,151.19,75,189.83,44.73,233.94,27.32,259.59,15.56,285.57,9.8,311.15A147.67,147.67,0,0,0,6.41,354.8a111.08,111.08,0,0,0,13.17,44.57A105,105,0,0,0,34,419.62a64.22,64.22,0,0,0,4.5,4.65c1.84,1.83,3.76,3.46,5.24,4.71a97.37,97.37,0,0,0,11.47,8.08,126.72,126.72,0,0,0,24.53,11,234.23,234.23,0,0,0,23.75,6.28c7.71,1.63,15.23,3,22.06,4.22,7,1.28,13.72,2.49,20.1,3.89,11.91,2.62,21.43,5.66,29,9.33a392.13,392.13,0,0,0,38.51,32.42,432.09,432.09,0,0,0,46.29,29.88,502.7,502.7,0,0,0,50,24.28c16.71,6.93,34.42,13.21,52.67,18.71a608,608,0,0,0,109.89,21.63A676.41,676.41,0,0,0,583.81,601a637.3,637.3,0,0,0,110-16.59c38-9.46,72.81-22.15,103.39-37.73a333.46,333.46,0,0,0,46.48-28.4,231.72,231.72,0,0,0,39.57-36.41c12.14-14.27,21.47-29.26,27.7-44.57A131,131,0,0,0,921,387.26l0-5.76-19.92-.75-.55,5.73a119.59,119.59,0,0,1-12.51,42.63,146.72,146.72,0,0,1-27,36.87c-10.29,10.47-22.46,20.23-37.22,29.88a311,311,0,0,1-43.41,23.29c-28.81,12.73-61.38,22.65-96.82,29.52A593.81,593.81,0,0,1,581.52,559.4c-68.75,1.5-138.28-8.51-200.95-28.89-65-21.11-123.27-54-168.49-95.15l-3.17-2.78-3.1-1.57c-17.52-8.51-35.23-12.31-48.69-14.63-7.93-1.41-15.64-2.49-23.27-3.57-6.79-.94-13.21-1.86-19.37-2.94a161.48,161.48,0,0,1-17.81-4,72.32,72.32,0,0,1-14.2-5.73,46.43,46.43,0,0,1-5.72-3.7c-.85-.65-1.66-1.27-2.4-2l-.29-.26a26.32,26.32,0,0,1-2.36-2.29,64.89,64.89,0,0,1-9.08-11.81,72.91,72.91,0,0,1-9.44-28.93,110.27,110.27,0,0,1,1.55-32.68C58.68,297.77,68,276,82.39,253.6c12.91-20,29.4-39.33,49-57.36a413.55,413.55,0,0,1,62.59-47.38c43.9-27.12,94.35-48.13,150-62.43,58.54-15,112.87-25.22,166-31.21,28.66-3.17,57-5.14,84.25-5.86a827.47,827.47,0,0,1,84.13,2.33c12.1.91,25.31,2.35,41.5,4.54,14.79,2.16,28.22,4.52,41,7.17,14.9,3.17,28,6.38,40.13,9.82,13.54,3.89,26.63,8.18,38.95,12.69,52.45,19.4,98.3,46.36,136.29,80.13a363.27,363.27,0,0,1,102.39,155.39c4,11.74,7.42,23.65,10.18,35.43l1.07,4.42c.3,1.41.59,2.72.85,4.12.48,2.56.89,5.24,1.26,8.22a136.23,136.23,0,0,1,.92,16.72,145.4,145.4,0,0,1-35.59,93.44,123.2,123.2,0,0,1-25.6,22.06A116,116,0,0,1,1001,519.68c-2.92.82-5.61,1.5-8.45,2.09-1.29.26-2.62.56-4.06.79l-6.6,1.27a81,81,0,0,0-30.58,13.91,61.5,61.5,0,0,0-21.1,27.45l-1.62,4.32c-.44,1.18-1,2.32-1.48,3.47-1,2.22-2.14,4.48-3.39,6.71-9.4,16.78-25.3,31.34-47.32,43.19A227.93,227.93,0,0,1,842.7,637.5a352.25,352.25,0,0,1-37.18,10.7c-12.17,2.88-25,5.3-39.2,7.43-12.91,2-26.49,3.56-40.32,4.74-13.61,1.21-27.33,2-40.87,2.46-6.9.23-13.61.36-20,.39-3.29-1.21-6.38-2.29-9.48-3.27-19.55-6.12-36.7-8.77-54.15-8.28a120.38,120.38,0,0,0-15.42,1.41c-2.58.39-5.13.91-7.78,1.5l-5.72,1.51c-.63.16-1.55.45-2.25.68-1,.36-2.36.85-4.31,1.74a37.78,37.78,0,0,0-7.42,4.61,29.2,29.2,0,0,0-11.1,20.39c-.52,8.24,2.25,15.6,8.26,21.92a33.23,33.23,0,0,0,6.46,5.2l.55.36a40.59,40.59,0,0,0,6.12,3l.45.2c1.62.62,2.84,1,3.76,1.31a89.64,89.64,0,0,0,9,2.26c5,1,9.3,1.63,13.21,2.16,14.31,1.83,29.14,3,46.66,3.53,7,.23,14.13.36,21.21.39,2.29,1,4.57,1.93,6.79,3,21.46,9.65,43.7,22.25,68,38.54a678.46,678.46,0,0,1,63.33,48c10.7,9.13,20.14,17.9,28.88,26.74,5.39,5.49,9.52,10,13.1,14.23a121.27,121.27,0,0,1,11,14.89l2.73,4.41,16-4.81-1-5.1a96.67,96.67,0,0,0-6.93-20.32,188.62,188.62,0,0,0-9.78-18.52,314.15,314.15,0,0,0-23.9-34.26,467.46,467.46,0,0,0-58.68-61c-4.69-4-9.45-8-14.13-11.74,6.68-.89,13.31-1.84,19.77-2.92,15.49-2.55,30.69-5.72,45.18-9.42,34.46-8.9,63.11-20.25,87.64-34.71a200.45,200.45,0,0,0,38.81-29.32,145.84,145.84,0,0,0,28.84-39.3c1.81-3.66,3.43-7.36,4.83-11,.7-1.87,1.4-3.73,2.07-5.69l1.55-5a8.46,8.46,0,0,1,2.73-3.86,20.16,20.16,0,0,1,7.08-3.66l4-.92c2.14-.46,4.24-1,6.34-1.5,4-1,8.08-2.23,12.4-3.63a172.08,172.08,0,0,0,45-22.68A174.41,174.41,0,0,0,1099.68,512a184.26,184.26,0,0,0,40.54-143.38Z"/>
</svg>
