<svg width="23" height="23" viewBox="0 0 23 23" fill="none" xmlns="http://www.w3.org/2000/svg">
<path d="M13.6994 6.29998C13.5161 6.48691 13.4135 6.73823 13.4135 6.99998C13.4135 7.26173 13.5161 7.51305 13.6994 7.69998L15.2994 9.29998C15.4863 9.48321 15.7376 9.58584 15.9994 9.58584C16.2611 9.58584 16.5124 9.48321 16.6994 9.29998L20.4694 5.52998C20.9722 6.64117 21.1245 7.87921 20.9058 9.07913C20.6872 10.279 20.1081 11.3838 19.2456 12.2463C18.3832 13.1087 17.2784 13.6878 16.0785 13.9064C14.8786 14.1251 13.6406 13.9728 12.5294 13.47L5.61937 20.38C5.22154 20.7778 4.68198 21.0013 4.11937 21.0013C3.55676 21.0013 3.01719 20.7778 2.61937 20.38C2.22154 19.9822 1.99805 19.4426 1.99805 18.88C1.99805 18.3174 2.22154 17.7778 2.61937 17.38L9.52937 10.47C9.02653 9.35879 8.87428 8.12075 9.09291 6.92083C9.31154 5.72092 9.89065 4.61614 10.7531 3.7537C11.6155 2.89127 12.7203 2.31215 13.9202 2.09352C15.1201 1.8749 16.3582 2.02714 17.4694 2.52998L13.7094 6.28998L13.6994 6.29998Z" stroke="black" stroke-width="2" stroke-linecap="round" stroke-linejoin="round"/>
</svg>
