<svg width="321" height="215" viewBox="0 0 321 215" fill="none" xmlns="http://www.w3.org/2000/svg">
<path d="M7.81139 -10.3772C7.81139 -10.3772 9.51423 -8.10676 12.3523 -8.10676C15.1904 -8.10676 16.8932 -10.3772 16.8932 -10.3772M8.94662 -16.0534H8.95847M15.758 -16.0534H15.7699M41.9705 -16.0534C42.2374 -16.8121 42.7642 -17.4519 43.4576 -17.8594C44.151 -18.2669 44.9663 -18.4159 45.759 -18.2799C46.5517 -18.1439 47.2707 -17.7318 47.7886 -17.1165C48.3066 -16.5012 48.5901 -15.7224 48.5889 -14.9182C48.5889 -12.6477 45.1832 -11.5125 45.1832 -11.5125M45.274 -6.97153H45.2859M73.6548 -10.3772C73.6548 -10.3772 75.3576 -8.10676 78.1957 -8.10676C81.0338 -8.10676 82.7367 -10.3772 82.7367 -10.3772M74.79 -16.0534H74.8019M81.6014 -16.0534H81.6133M107.814 -16.0534C108.081 -16.8121 108.608 -17.4519 109.301 -17.8594C109.994 -18.2669 110.81 -18.4159 111.602 -18.2799C112.395 -18.1439 113.114 -17.7318 113.632 -17.1165C114.15 -16.5012 114.434 -15.7224 114.432 -14.9182C114.432 -12.6477 111.027 -11.5125 111.027 -11.5125M111.117 -6.97153H111.129M139.498 -10.3772C139.498 -10.3772 141.201 -8.10676 144.039 -8.10676C146.877 -8.10676 148.58 -10.3772 148.58 -10.3772M140.633 -16.0534H140.645M147.445 -16.0534H147.457M206.579 -16.0534C206.846 -16.8121 207.373 -17.4519 208.066 -17.8594C208.76 -18.2669 209.575 -18.4159 210.368 -18.2799C211.16 -18.1439 211.879 -17.7318 212.397 -17.1165C212.915 -16.5012 213.199 -15.7224 213.197 -14.9182C213.197 -12.6477 209.792 -11.5125 209.792 -11.5125M209.883 -6.97153H209.894M239.501 -16.0534C239.768 -16.8121 240.294 -17.4519 240.988 -17.8594C241.681 -18.2669 242.497 -18.4159 243.289 -18.2799C244.082 -18.1439 244.801 -17.7318 245.319 -17.1165C245.837 -16.5012 246.12 -15.7224 246.119 -14.9182C246.119 -12.6477 242.713 -11.5125 242.713 -11.5125M242.804 -6.97153H242.816M271.185 -10.3772C271.185 -10.3772 272.888 -8.10676 275.726 -8.10676C278.564 -8.10676 280.267 -10.3772 280.267 -10.3772M272.32 -16.0534H272.332M279.132 -16.0534H279.144M40.7331 22.5445C40.7331 22.5445 42.4359 24.8149 45.274 24.8149C48.1121 24.8149 49.8149 22.5445 49.8149 22.5445M41.8683 16.8683H41.8802M48.6797 16.8683H48.6916M74.8922 16.8683C75.1591 16.1096 75.6859 15.4698 76.3793 15.0623C77.0727 14.6548 77.888 14.5058 78.6807 14.6418C79.4734 14.7778 80.1924 15.1899 80.7104 15.8052C81.2283 16.4205 81.5118 17.1993 81.5106 18.0036C81.5106 20.274 78.1049 21.4092 78.1049 21.4092M78.1957 25.9502H78.2076M106.577 22.5445C106.577 22.5445 108.279 24.8149 111.117 24.8149C113.956 24.8149 115.658 22.5445 115.658 22.5445M107.712 16.8683H107.724M114.523 16.8683H114.535M172.42 22.5445C172.42 22.5445 174.123 24.8149 176.961 24.8149C179.799 24.8149 181.502 22.5445 181.502 22.5445M173.555 16.8683H173.567M180.367 16.8683H180.378M205.342 22.5445C205.342 22.5445 207.044 24.8149 209.883 24.8149C212.721 24.8149 214.423 22.5445 214.423 22.5445M206.477 16.8683H206.489M213.288 16.8683H213.3M238.263 22.5445C238.263 22.5445 239.966 24.8149 242.804 24.8149C245.642 24.8149 247.345 22.5445 247.345 22.5445M239.399 16.8683H239.41M246.21 16.8683H246.222M272.422 16.8683C272.689 16.1096 273.216 15.4698 273.91 15.0623C274.603 14.6548 275.418 14.5058 276.211 14.6418C277.004 14.7778 277.723 15.1899 278.241 15.8052C278.759 16.4205 279.042 17.1993 279.041 18.0036C279.041 20.274 275.635 21.4092 275.635 21.4092M275.726 25.9502H275.738M9.0488 49.79C9.31569 49.0313 9.8425 48.3915 10.5359 47.984C11.2293 47.5765 12.0446 47.4275 12.8373 47.5635C13.63 47.6995 14.349 48.1116 14.8669 48.7269C15.3849 49.3422 15.6684 50.121 15.6672 50.9253C15.6672 53.1957 12.2615 54.331 12.2615 54.331M12.3523 58.8719H12.3642M74.8922 49.79C75.1591 49.0313 75.6859 48.3915 76.3793 47.984C77.0727 47.5765 77.888 47.4275 78.6807 47.5635C79.4734 47.6995 80.1924 48.1116 80.7104 48.7269C81.2283 49.3422 81.5118 50.121 81.5106 50.9253C81.5106 53.1957 78.1049 54.331 78.1049 54.331M78.1957 58.8719H78.2076M107.814 49.79C108.081 49.0313 108.608 48.3915 109.301 47.984C109.994 47.5765 110.81 47.4275 111.602 47.5635C112.395 47.6995 113.114 48.1116 113.632 48.7269C114.15 49.3422 114.434 50.121 114.432 50.9253C114.432 53.1957 111.027 54.331 111.027 54.331M111.117 58.8719H111.129M139.498 55.4662C139.498 55.4662 141.201 57.7367 144.039 57.7367C146.877 57.7367 148.58 55.4662 148.58 55.4662M140.633 49.79H140.645M147.445 49.79H147.457M238.263 55.4662C238.263 55.4662 239.966 57.7367 242.804 57.7367C245.642 57.7367 247.345 55.4662 247.345 55.4662M239.399 49.79H239.41M246.21 49.79H246.222M304.107 55.4662C304.107 55.4662 305.81 57.7367 308.648 57.7367C311.486 57.7367 313.189 55.4662 313.189 55.4662M305.242 49.79H305.254M312.053 49.79H312.065M73.6548 88.3879C73.6548 88.3879 75.3576 90.6584 78.1957 90.6584C81.0338 90.6584 82.7367 88.3879 82.7367 88.3879M74.79 82.7117H74.8019M81.6014 82.7117H81.6133M106.577 88.3879C106.577 88.3879 108.279 90.6584 111.117 90.6584C113.956 90.6584 115.658 88.3879 115.658 88.3879M107.712 82.7117H107.724M114.523 82.7117H114.535M173.657 82.7117C173.924 81.953 174.451 81.3133 175.144 80.9057C175.838 80.4982 176.653 80.3493 177.446 80.4852C178.239 80.6212 178.958 81.0333 179.475 81.6486C179.993 82.2639 180.277 83.0427 180.276 83.847C180.276 86.1174 176.87 87.2527 176.87 87.2527M176.961 91.7936H176.973M205.342 88.3879C205.342 88.3879 207.044 90.6584 209.883 90.6584C212.721 90.6584 214.423 88.3879 214.423 88.3879M206.477 82.7117H206.489M213.288 82.7117H213.3M239.501 82.7117C239.768 81.953 240.294 81.3133 240.988 80.9057C241.681 80.4982 242.497 80.3493 243.289 80.4852C244.082 80.6212 244.801 81.0333 245.319 81.6486C245.837 82.2639 246.12 83.0427 246.119 83.847C246.119 86.1174 242.713 87.2527 242.713 87.2527M242.804 91.7936H242.816M272.422 82.7117C272.689 81.953 273.216 81.3133 273.91 80.9057C274.603 80.4982 275.418 80.3493 276.211 80.4852C277.004 80.6212 277.723 81.0333 278.241 81.6486C278.759 82.2639 279.042 83.0427 279.041 83.847C279.041 86.1174 275.635 87.2527 275.635 87.2527M275.726 91.7936H275.738M305.344 82.7117C305.611 81.953 306.138 81.3133 306.831 80.9057C307.525 80.4982 308.34 80.3493 309.133 80.4852C309.925 80.6212 310.644 81.0333 311.162 81.6486C311.68 82.2639 311.964 83.0427 311.963 83.847C311.963 86.1174 308.557 87.2527 308.557 87.2527M308.648 91.7936H308.66M7.81139 121.31C7.81139 121.31 9.51423 123.58 12.3523 123.58C15.1904 123.58 16.8932 121.31 16.8932 121.31M8.94662 115.633H8.95847M15.758 115.633H15.7699M40.7331 121.31C40.7331 121.31 42.4359 123.58 45.274 123.58C48.1121 123.58 49.8149 121.31 49.8149 121.31M41.8683 115.633H41.8802M48.6797 115.633H48.6916M106.577 121.31C106.577 121.31 108.279 123.58 111.117 123.58C113.956 123.58 115.658 121.31 115.658 121.31M107.712 115.633H107.724M114.523 115.633H114.535M140.736 115.633C141.003 114.875 141.529 114.235 142.223 113.827C142.916 113.42 143.731 113.271 144.524 113.407C145.317 113.543 146.036 113.955 146.554 114.57C147.072 115.186 147.355 115.964 147.354 116.769C147.354 119.039 143.948 120.174 143.948 120.174M144.039 124.715H144.051M172.42 121.31C172.42 121.31 174.123 123.58 176.961 123.58C179.799 123.58 181.502 121.31 181.502 121.31M173.555 115.633H173.567M180.367 115.633H180.378M272.422 115.633C272.689 114.875 273.216 114.235 273.91 113.827C274.603 113.42 275.418 113.271 276.211 113.407C277.004 113.543 277.723 113.955 278.241 114.57C278.759 115.186 279.042 115.964 279.041 116.769C279.041 119.039 275.635 120.174 275.635 120.174M275.726 124.715H275.738M74.8922 148.555C75.1591 147.796 75.6859 147.157 76.3793 146.749C77.0727 146.342 77.888 146.193 78.6807 146.329C79.4734 146.465 80.1924 146.877 80.7104 147.492C81.2283 148.107 81.5118 148.886 81.5106 149.69C81.5106 151.961 78.1049 153.096 78.1049 153.096M78.1957 157.637H78.2076M173.657 148.555C173.924 147.796 174.451 147.157 175.144 146.749C175.838 146.342 176.653 146.193 177.446 146.329C178.239 146.465 178.958 146.877 179.475 147.492C179.993 148.107 180.277 148.886 180.276 149.69C180.276 151.961 176.87 153.096 176.87 153.096M176.961 157.637H176.973M205.342 154.231C205.342 154.231 207.044 156.502 209.883 156.502C212.721 156.502 214.423 154.231 214.423 154.231M206.477 148.555H206.489M213.288 148.555H213.3M271.185 154.231C271.185 154.231 272.888 156.502 275.726 156.502C278.564 156.502 280.267 154.231 280.267 154.231M272.32 148.555H272.332M279.132 148.555H279.144M305.344 148.555C305.611 147.796 306.138 147.157 306.831 146.749C307.525 146.342 308.34 146.193 309.133 146.329C309.925 146.465 310.644 146.877 311.162 147.492C311.68 148.107 311.964 148.886 311.963 149.69C311.963 151.961 308.557 153.096 308.557 153.096M308.648 157.637H308.66M7.81139 187.153C7.81139 187.153 9.51423 189.423 12.3523 189.423C15.1904 189.423 16.8932 187.153 16.8932 187.153M8.94662 181.477H8.95847M15.758 181.477H15.7699M40.7331 187.153C40.7331 187.153 42.4359 189.423 45.274 189.423C48.1121 189.423 49.8149 187.153 49.8149 187.153M41.8683 181.477H41.8802M48.6797 181.477H48.6916M107.814 181.477C108.081 180.718 108.608 180.078 109.301 179.671C109.994 179.263 110.81 179.114 111.602 179.25C112.395 179.386 113.114 179.798 113.632 180.414C114.15 181.029 114.434 181.808 114.432 182.612C114.432 184.883 111.027 186.018 111.027 186.018M111.117 190.559H111.129M140.736 181.477C141.003 180.718 141.529 180.078 142.223 179.671C142.916 179.263 143.731 179.114 144.524 179.25C145.317 179.386 146.036 179.798 146.554 180.414C147.072 181.029 147.355 181.808 147.354 182.612C147.354 184.883 143.948 186.018 143.948 186.018M144.039 190.559H144.051M206.579 181.477C206.846 180.718 207.373 180.078 208.066 179.671C208.76 179.263 209.575 179.114 210.368 179.25C211.16 179.386 211.879 179.798 212.397 180.414C212.915 181.029 213.199 181.808 213.197 182.612C213.197 184.883 209.792 186.018 209.792 186.018M209.883 190.559H209.894M238.263 187.153C238.263 187.153 239.966 189.423 242.804 189.423C245.642 189.423 247.345 187.153 247.345 187.153M239.399 181.477H239.41M246.21 181.477H246.222M272.422 181.477C272.689 180.718 273.216 180.078 273.91 179.671C274.603 179.263 275.418 179.114 276.211 179.25C277.004 179.386 277.723 179.798 278.241 180.414C278.759 181.029 279.042 181.808 279.041 182.612C279.041 184.883 275.635 186.018 275.635 186.018M275.726 190.559H275.738M305.344 181.477C305.611 180.718 306.138 180.078 306.831 179.671C307.525 179.263 308.34 179.114 309.133 179.25C309.925 179.386 310.644 179.798 311.162 180.414C311.68 181.029 311.964 181.808 311.963 182.612C311.963 184.883 308.557 186.018 308.557 186.018M308.648 190.559H308.66M9.0488 214.399C9.31569 213.64 9.8425 213 10.5359 212.593C11.2293 212.185 12.0446 212.036 12.8373 212.172C13.63 212.308 14.349 212.72 14.8669 213.335C15.3849 213.951 15.6684 214.73 15.6672 215.534C15.6672 217.804 12.2615 218.939 12.2615 218.939M12.3523 223.48H12.3642M74.8922 214.399C75.1591 213.64 75.6859 213 76.3793 212.593C77.0727 212.185 77.888 212.036 78.6807 212.172C79.4734 212.308 80.1924 212.72 80.7104 213.335C81.2283 213.951 81.5118 214.73 81.5106 215.534C81.5106 217.804 78.1049 218.939 78.1049 218.939M78.1957 223.48H78.2076M140.736 214.399C141.003 213.64 141.529 213 142.223 212.593C142.916 212.185 143.731 212.036 144.524 212.172C145.317 212.308 146.036 212.72 146.554 213.335C147.072 213.951 147.355 214.73 147.354 215.534C147.354 217.804 143.948 218.939 143.948 218.939M144.039 223.48H144.051M271.185 220.075C271.185 220.075 272.888 222.345 275.726 222.345C278.564 222.345 280.267 220.075 280.267 220.075M272.32 214.399H272.332M279.132 214.399H279.144M9.0488 247.32C9.31569 246.562 9.8425 245.922 10.5359 245.514C11.2293 245.107 12.0446 244.958 12.8373 245.094C13.63 245.23 14.349 245.642 14.8669 246.257C15.3849 246.872 15.6684 247.651 15.6672 248.455C15.6672 250.726 12.2615 251.861 12.2615 251.861M12.3523 256.402H12.3642M41.9705 247.32C42.2374 246.562 42.7642 245.922 43.4576 245.514C44.151 245.107 44.9663 244.958 45.759 245.094C46.5517 245.23 47.2707 245.642 47.7886 246.257C48.3066 246.872 48.5901 247.651 48.5889 248.455C48.5889 250.726 45.1832 251.861 45.1832 251.861M45.274 256.402H45.2859M73.6548 252.996C73.6548 252.996 75.3576 255.267 78.1957 255.267C81.0338 255.267 82.7367 252.996 82.7367 252.996M74.79 247.32H74.8019M81.6014 247.32H81.6133M205.342 252.996C205.342 252.996 207.044 255.267 209.883 255.267C212.721 255.267 214.423 252.996 214.423 252.996M206.477 247.32H206.489M213.288 247.32H213.3M239.501 247.32C239.768 246.562 240.294 245.922 240.988 245.514C241.681 245.107 242.497 244.958 243.289 245.094C244.082 245.23 244.801 245.642 245.319 246.257C245.837 246.872 246.12 247.651 246.119 248.455C246.119 250.726 242.713 251.861 242.713 251.861M242.804 256.402H242.816M272.422 247.32C272.689 246.562 273.216 245.922 273.91 245.514C274.603 245.107 275.418 244.958 276.211 245.094C277.004 245.23 277.723 245.642 278.241 246.257C278.759 246.872 279.042 247.651 279.041 248.455C279.041 250.726 275.635 251.861 275.635 251.861M275.726 256.402H275.738M305.344 247.32C305.611 246.562 306.138 245.922 306.831 245.514C307.525 245.107 308.34 244.958 309.133 245.094C309.925 245.23 310.644 245.642 311.162 246.257C311.68 246.872 311.964 247.651 311.963 248.455C311.963 250.726 308.557 251.861 308.557 251.861M308.648 256.402H308.66M7.81139 285.918C7.81139 285.918 9.51423 288.189 12.3523 288.189C15.1904 288.189 16.8932 285.918 16.8932 285.918M8.94662 280.242H8.95847M15.758 280.242H15.7699M40.7331 285.918C40.7331 285.918 42.4359 288.189 45.274 288.189C48.1121 288.189 49.8149 285.918 49.8149 285.918M41.8683 280.242H41.8802M48.6797 280.242H48.6916M73.6548 285.918C73.6548 285.918 75.3576 288.189 78.1957 288.189C81.0338 288.189 82.7367 285.918 82.7367 285.918M74.79 280.242H74.8019M81.6014 280.242H81.6133M107.814 280.242C108.081 279.483 108.608 278.844 109.301 278.436C109.994 278.028 110.81 277.879 111.602 278.015C112.395 278.151 113.114 278.564 113.632 279.179C114.15 279.794 114.434 280.573 114.432 281.377C114.432 283.648 111.027 284.783 111.027 284.783M111.117 289.324H111.129M139.498 285.918C139.498 285.918 141.201 288.189 144.039 288.189C146.877 288.189 148.58 285.918 148.58 285.918M140.633 280.242H140.645M147.445 280.242H147.457M172.42 285.918C172.42 285.918 174.123 288.189 176.961 288.189C179.799 288.189 181.502 285.918 181.502 285.918M173.555 280.242H173.567M180.367 280.242H180.378M206.579 280.242C206.846 279.483 207.373 278.844 208.066 278.436C208.76 278.028 209.575 277.879 210.368 278.015C211.16 278.151 211.879 278.564 212.397 279.179C212.915 279.794 213.199 280.573 213.197 281.377C213.197 283.648 209.792 284.783 209.792 284.783M209.883 289.324H209.894M271.185 285.918C271.185 285.918 272.888 288.189 275.726 288.189C278.564 288.189 280.267 285.918 280.267 285.918M272.32 280.242H272.332M279.132 280.242H279.144M305.344 280.242C305.611 279.483 306.138 278.844 306.831 278.436C307.525 278.028 308.34 277.879 309.133 278.015C309.925 278.151 310.644 278.564 311.162 279.179C311.68 279.794 311.964 280.573 311.963 281.377C311.963 283.648 308.557 284.783 308.557 284.783M308.648 289.324H308.66M23.7046 -12.6477C23.7046 -6.37798 18.622 -1.29537 12.3523 -1.29537C6.0826 -1.29537 1 -6.37798 1 -12.6477C1 -18.9174 6.0826 -24 12.3523 -24C18.622 -24 23.7046 -18.9174 23.7046 -12.6477ZM56.6263 -12.6477C56.6263 -6.37798 51.5437 -1.29537 45.274 -1.29537C39.0043 -1.29537 33.9217 -6.37798 33.9217 -12.6477C33.9217 -18.9174 39.0043 -24 45.274 -24C51.5437 -24 56.6263 -18.9174 56.6263 -12.6477ZM89.548 -12.6477C89.548 -6.37798 84.4654 -1.29537 78.1957 -1.29537C71.926 -1.29537 66.8434 -6.37798 66.8434 -12.6477C66.8434 -18.9174 71.926 -24 78.1957 -24C84.4654 -24 89.548 -18.9174 89.548 -12.6477ZM122.47 -12.6477C122.47 -6.37798 117.387 -1.29537 111.117 -1.29537C104.848 -1.29537 99.7651 -6.37798 99.7651 -12.6477C99.7651 -18.9174 104.848 -24 111.117 -24C117.387 -24 122.47 -18.9174 122.47 -12.6477ZM155.391 -12.6477C155.391 -6.37798 150.309 -1.29537 144.039 -1.29537C137.769 -1.29537 132.687 -6.37798 132.687 -12.6477C132.687 -18.9174 137.769 -24 144.039 -24C150.309 -24 155.391 -18.9174 155.391 -12.6477ZM187.178 -13.2153C187.182 -11.7169 186.832 -10.2389 186.156 -8.90143C185.355 -7.29877 184.124 -5.95076 182.6 -5.0084C181.076 -4.06604 179.32 -3.56653 177.528 -3.56584C176.03 -3.56193 174.552 -3.91201 173.215 -4.58755L166.744 -2.43061L168.901 -8.90143C168.225 -10.2389 167.875 -11.7169 167.879 -13.2153C167.88 -15.007 168.379 -16.7631 169.322 -18.2869C170.264 -19.8107 171.612 -21.0421 173.215 -21.8431C174.552 -22.5186 176.03 -22.8687 177.528 -22.8648H178.096C180.462 -22.7342 182.697 -21.7355 184.373 -20.0598C186.049 -18.3841 187.047 -16.1491 187.178 -13.7829V-13.2153ZM221.235 -12.6477C221.235 -6.37798 216.152 -1.29537 209.883 -1.29537C203.613 -1.29537 198.53 -6.37798 198.53 -12.6477C198.53 -18.9174 203.613 -24 209.883 -24C216.152 -24 221.235 -18.9174 221.235 -12.6477ZM254.157 -12.6477C254.157 -6.37798 249.074 -1.29537 242.804 -1.29537C236.535 -1.29537 231.452 -6.37798 231.452 -12.6477C231.452 -18.9174 236.535 -24 242.804 -24C249.074 -24 254.157 -18.9174 254.157 -12.6477ZM287.078 -12.6477C287.078 -6.37798 281.996 -1.29537 275.726 -1.29537C269.456 -1.29537 264.374 -6.37798 264.374 -12.6477C264.374 -18.9174 269.456 -24 275.726 -24C281.996 -24 287.078 -18.9174 287.078 -12.6477ZM318.865 -13.2153C318.869 -11.7169 318.519 -10.2389 317.843 -8.90143C317.042 -7.29877 315.811 -5.95076 314.287 -5.0084C312.763 -4.06604 311.007 -3.56653 309.215 -3.56584C307.717 -3.56193 306.239 -3.91201 304.901 -4.58755L298.431 -2.43061L300.588 -8.90143C299.912 -10.2389 299.562 -11.7169 299.566 -13.2153C299.567 -15.007 300.066 -16.7631 301.008 -18.2869C301.951 -19.8107 303.299 -21.0421 304.901 -21.8431C306.239 -22.5186 307.717 -22.8687 309.215 -22.8648H309.783C312.149 -22.7342 314.384 -21.7355 316.06 -20.0598C317.735 -18.3841 318.734 -16.1491 318.865 -13.7829V-13.2153ZM22.5694 19.7064C22.5733 21.2048 22.2232 22.6828 21.5477 24.0203C20.7467 25.6229 19.5153 26.9709 17.9915 27.9133C16.4677 28.8557 14.7116 29.3552 12.9199 29.3559C11.4216 29.3598 9.94348 29.0097 8.60605 28.3342L2.13523 30.4911L4.29217 24.0203C3.61663 22.6828 3.26656 21.2048 3.27046 19.7064C3.27116 17.9147 3.77066 16.1586 4.71302 14.6348C5.65539 13.111 7.00339 11.8796 8.60605 11.0786C9.94348 10.4031 11.4216 10.053 12.9199 10.0569H13.4875C15.8538 10.1875 18.0887 11.1862 19.7644 12.8619C21.4401 14.5376 22.4389 16.7726 22.5694 19.1388V19.7064ZM56.6263 20.274C56.6263 26.5437 51.5437 31.6263 45.274 31.6263C39.0043 31.6263 33.9217 26.5437 33.9217 20.274C33.9217 14.0043 39.0043 8.92171 45.274 8.92171C51.5437 8.92171 56.6263 14.0043 56.6263 20.274ZM89.548 20.274C89.548 26.5437 84.4654 31.6263 78.1957 31.6263C71.926 31.6263 66.8434 26.5437 66.8434 20.274C66.8434 14.0043 71.926 8.92171 78.1957 8.92171C84.4654 8.92171 89.548 14.0043 89.548 20.274ZM122.47 20.274C122.47 26.5437 117.387 31.6263 111.117 31.6263C104.848 31.6263 99.7651 26.5437 99.7651 20.274C99.7651 14.0043 104.848 8.92171 111.117 8.92171C117.387 8.92171 122.47 14.0043 122.47 20.274ZM154.256 19.7064C154.26 21.2048 153.91 22.6828 153.235 24.0203C152.434 25.6229 151.202 26.9709 149.678 27.9133C148.155 28.8557 146.398 29.3552 144.607 29.3559C143.108 29.3598 141.63 29.0097 140.293 28.3342L133.822 30.4911L135.979 24.0203C135.303 22.6828 134.953 21.2048 134.957 19.7064C134.958 17.9147 135.457 16.1586 136.4 14.6348C137.342 13.111 138.69 11.8796 140.293 11.0786C141.63 10.4031 143.108 10.053 144.607 10.0569H145.174C147.541 10.1875 149.776 11.1862 151.451 12.8619C153.127 14.5376 154.126 16.7726 154.256 19.1388V19.7064ZM188.313 20.274C188.313 26.5437 183.231 31.6263 176.961 31.6263C170.691 31.6263 165.609 26.5437 165.609 20.274C165.609 14.0043 170.691 8.92171 176.961 8.92171C183.231 8.92171 188.313 14.0043 188.313 20.274ZM221.235 20.274C221.235 26.5437 216.152 31.6263 209.883 31.6263C203.613 31.6263 198.53 26.5437 198.53 20.274C198.53 14.0043 203.613 8.92171 209.883 8.92171C216.152 8.92171 221.235 14.0043 221.235 20.274ZM254.157 20.274C254.157 26.5437 249.074 31.6263 242.804 31.6263C236.535 31.6263 231.452 26.5437 231.452 20.274C231.452 14.0043 236.535 8.92171 242.804 8.92171C249.074 8.92171 254.157 14.0043 254.157 20.274ZM287.078 20.274C287.078 26.5437 281.996 31.6263 275.726 31.6263C269.456 31.6263 264.374 26.5437 264.374 20.274C264.374 14.0043 269.456 8.92171 275.726 8.92171C281.996 8.92171 287.078 14.0043 287.078 20.274ZM318.865 19.7064C318.869 21.2048 318.519 22.6828 317.843 24.0203C317.042 25.6229 315.811 26.9709 314.287 27.9133C312.763 28.8557 311.007 29.3552 309.215 29.3559C307.717 29.3598 306.239 29.0097 304.901 28.3342L298.431 30.4911L300.588 24.0203C299.912 22.6828 299.562 21.2048 299.566 19.7064C299.567 17.9147 300.066 16.1586 301.008 14.6348C301.951 13.111 303.299 11.8796 304.901 11.0786C306.239 10.4031 307.717 10.053 309.215 10.0569H309.783C312.149 10.1875 314.384 11.1862 316.06 12.8619C317.735 14.5376 318.734 16.7726 318.865 19.1388V19.7064ZM23.7046 53.1957C23.7046 59.4654 18.622 64.548 12.3523 64.548C6.0826 64.548 1 59.4654 1 53.1957C1 46.926 6.0826 41.8434 12.3523 41.8434C18.622 41.8434 23.7046 46.926 23.7046 53.1957ZM55.4911 52.6281C55.495 54.1265 55.1449 55.6046 54.4694 56.942C53.6684 58.5447 52.437 59.8927 50.9132 60.835C49.3894 61.7774 47.6333 62.2769 45.8416 62.2776C44.3433 62.2815 42.8652 61.9314 41.5278 61.2559L35.0569 63.4128L37.2139 56.942C36.5383 55.6046 36.1883 54.1265 36.1922 52.6281C36.1929 50.8364 36.6924 49.0803 37.6347 47.5565C38.5771 46.0327 39.9251 44.8013 41.5278 44.0004C42.8652 43.3248 44.3433 42.9747 45.8416 42.9786H46.4092C48.7755 43.1092 51.0104 44.1079 52.6861 45.7836C54.3618 47.4594 55.3606 49.6943 55.4911 52.0605V52.6281ZM89.548 53.1957C89.548 59.4654 84.4654 64.548 78.1957 64.548C71.926 64.548 66.8434 59.4654 66.8434 53.1957C66.8434 46.926 71.926 41.8434 78.1957 41.8434C84.4654 41.8434 89.548 46.926 89.548 53.1957ZM122.47 53.1957C122.47 59.4654 117.387 64.548 111.117 64.548C104.848 64.548 99.7651 59.4654 99.7651 53.1957C99.7651 46.926 104.848 41.8434 111.117 41.8434C117.387 41.8434 122.47 46.926 122.47 53.1957ZM155.391 53.1957C155.391 59.4654 150.309 64.548 144.039 64.548C137.769 64.548 132.687 59.4654 132.687 53.1957C132.687 46.926 137.769 41.8434 144.039 41.8434C150.309 41.8434 155.391 46.926 155.391 53.1957ZM187.178 52.6281C187.182 54.1265 186.832 55.6046 186.156 56.942C185.355 58.5447 184.124 59.8927 182.6 60.835C181.076 61.7774 179.32 62.2769 177.528 62.2776C176.03 62.2815 174.552 61.9314 173.215 61.2559L166.744 63.4128L168.901 56.942C168.225 55.6046 167.875 54.1265 167.879 52.6281C167.88 50.8364 168.379 49.0803 169.322 47.5565C170.264 46.0327 171.612 44.8013 173.215 44.0004C174.552 43.3248 176.03 42.9747 177.528 42.9786H178.096C180.462 43.1092 182.697 44.1079 184.373 45.7836C186.049 47.4594 187.047 49.6943 187.178 52.0605V52.6281ZM220.1 52.6281C220.104 54.1265 219.753 55.6046 219.078 56.942C218.277 58.5447 217.046 59.8927 215.522 60.835C213.998 61.7774 212.242 62.2769 210.45 62.2776C208.952 62.2815 207.474 61.9314 206.136 61.2559L199.665 63.4128L201.822 56.942C201.147 55.6046 200.797 54.1265 200.801 52.6281C200.801 50.8364 201.301 49.0803 202.243 47.5565C203.186 46.0327 204.534 44.8013 206.136 44.0004C207.474 43.3248 208.952 42.9747 210.45 42.9786H211.018C213.384 43.1092 215.619 44.1079 217.295 45.7836C218.97 47.4594 219.969 49.6943 220.1 52.0605V52.6281ZM254.157 53.1957C254.157 59.4654 249.074 64.548 242.804 64.548C236.535 64.548 231.452 59.4654 231.452 53.1957C231.452 46.926 236.535 41.8434 242.804 41.8434C249.074 41.8434 254.157 46.926 254.157 53.1957ZM285.943 52.6281C285.947 54.1265 285.597 55.6046 284.921 56.942C284.12 58.5447 282.889 59.8927 281.365 60.835C279.841 61.7774 278.085 62.2769 276.294 62.2776C274.795 62.2815 273.317 61.9314 271.98 61.2559L265.509 63.4128L267.666 56.942C266.99 55.6046 266.64 54.1265 266.644 52.6281C266.645 50.8364 267.144 49.0803 268.087 47.5565C269.029 46.0327 270.377 44.8013 271.98 44.0004C273.317 43.3248 274.795 42.9747 276.294 42.9786H276.861C279.227 43.1092 281.462 44.1079 283.138 45.7836C284.814 47.4594 285.813 49.6943 285.943 52.0605V52.6281ZM320 53.1957C320 59.4654 314.917 64.548 308.648 64.548C302.378 64.548 297.295 59.4654 297.295 53.1957C297.295 46.926 302.378 41.8434 308.648 41.8434C314.917 41.8434 320 46.926 320 53.1957ZM22.5694 85.5498C22.5733 87.0482 22.2232 88.5263 21.5477 89.8637C20.7467 91.4664 19.5153 92.8144 17.9915 93.7567C16.4677 94.6991 14.7116 95.1986 12.9199 95.1993C11.4216 95.2032 9.94348 94.8531 8.60605 94.1776L2.13523 96.3345L4.29217 89.8637C3.61663 88.5263 3.26656 87.0482 3.27046 85.5498C3.27116 83.7581 3.77066 82.002 4.71302 80.4782C5.65539 78.9544 7.00339 77.723 8.60605 76.9221C9.94348 76.2465 11.4216 75.8964 12.9199 75.9004H13.4875C15.8538 76.0309 18.0887 77.0296 19.7644 78.7053C21.4401 80.3811 22.4389 82.616 22.5694 84.9822V85.5498ZM55.4911 85.5498C55.495 87.0482 55.1449 88.5263 54.4694 89.8637C53.6684 91.4664 52.437 92.8144 50.9132 93.7567C49.3894 94.6991 47.6333 95.1986 45.8416 95.1993C44.3433 95.2032 42.8652 94.8531 41.5278 94.1776L35.0569 96.3345L37.2139 89.8637C36.5383 88.5263 36.1883 87.0482 36.1922 85.5498C36.1929 83.7581 36.6924 82.002 37.6347 80.4782C38.5771 78.9544 39.9251 77.723 41.5278 76.9221C42.8652 76.2465 44.3433 75.8964 45.8416 75.9004H46.4092C48.7755 76.0309 51.0104 77.0296 52.6861 78.7053C54.3618 80.3811 55.3606 82.616 55.4911 84.9822V85.5498ZM89.548 86.1174C89.548 92.3871 84.4654 97.4698 78.1957 97.4698C71.926 97.4698 66.8434 92.3871 66.8434 86.1174C66.8434 79.8477 71.926 74.7651 78.1957 74.7651C84.4654 74.7651 89.548 79.8477 89.548 86.1174ZM122.47 86.1174C122.47 92.3871 117.387 97.4698 111.117 97.4698C104.848 97.4698 99.7651 92.3871 99.7651 86.1174C99.7651 79.8477 104.848 74.7651 111.117 74.7651C117.387 74.7651 122.47 79.8477 122.47 86.1174ZM154.256 85.5498C154.26 87.0482 153.91 88.5263 153.235 89.8637C152.434 91.4664 151.202 92.8144 149.678 93.7567C148.155 94.6991 146.398 95.1986 144.607 95.1993C143.108 95.2032 141.63 94.8531 140.293 94.1776L133.822 96.3345L135.979 89.8637C135.303 88.5263 134.953 87.0482 134.957 85.5498C134.958 83.7581 135.457 82.002 136.4 80.4782C137.342 78.9544 138.69 77.723 140.293 76.9221C141.63 76.2465 143.108 75.8964 144.607 75.9004H145.174C147.541 76.0309 149.776 77.0296 151.451 78.7053C153.127 80.3811 154.126 82.616 154.256 84.9822V85.5498ZM188.313 86.1174C188.313 92.3871 183.231 97.4698 176.961 97.4698C170.691 97.4698 165.609 92.3871 165.609 86.1174C165.609 79.8477 170.691 74.7651 176.961 74.7651C183.231 74.7651 188.313 79.8477 188.313 86.1174ZM221.235 86.1174C221.235 92.3871 216.152 97.4698 209.883 97.4698C203.613 97.4698 198.53 92.3871 198.53 86.1174C198.53 79.8477 203.613 74.7651 209.883 74.7651C216.152 74.7651 221.235 79.8477 221.235 86.1174ZM254.157 86.1174C254.157 92.3871 249.074 97.4698 242.804 97.4698C236.535 97.4698 231.452 92.3871 231.452 86.1174C231.452 79.8477 236.535 74.7651 242.804 74.7651C249.074 74.7651 254.157 79.8477 254.157 86.1174ZM287.078 86.1174C287.078 92.3871 281.996 97.4698 275.726 97.4698C269.456 97.4698 264.374 92.3871 264.374 86.1174C264.374 79.8477 269.456 74.7651 275.726 74.7651C281.996 74.7651 287.078 79.8477 287.078 86.1174ZM320 86.1174C320 92.3871 314.917 97.4698 308.648 97.4698C302.378 97.4698 297.295 92.3871 297.295 86.1174C297.295 79.8477 302.378 74.7651 308.648 74.7651C314.917 74.7651 320 79.8477 320 86.1174ZM23.7046 119.039C23.7046 125.309 18.622 130.391 12.3523 130.391C6.0826 130.391 1 125.309 1 119.039C1 112.769 6.0826 107.687 12.3523 107.687C18.622 107.687 23.7046 112.769 23.7046 119.039ZM56.6263 119.039C56.6263 125.309 51.5437 130.391 45.274 130.391C39.0043 130.391 33.9217 125.309 33.9217 119.039C33.9217 112.769 39.0043 107.687 45.274 107.687C51.5437 107.687 56.6263 112.769 56.6263 119.039ZM88.4128 118.472C88.4167 119.97 88.0666 121.448 87.3911 122.785C86.5901 124.388 85.3588 125.736 83.8349 126.678C82.3111 127.621 80.555 128.12 78.7633 128.121C77.265 128.125 75.7869 127.775 74.4495 127.099L67.9786 129.256L70.1356 122.785C69.46 121.448 69.11 119.97 69.1139 118.472C69.1146 116.68 69.6141 114.924 70.5564 113.4C71.4988 111.876 72.8468 110.645 74.4495 109.844C75.7869 109.168 77.265 108.818 78.7633 108.822H79.331C81.6972 108.953 83.9321 109.951 85.6078 111.627C87.2835 113.303 88.2823 115.538 88.4128 117.904V118.472ZM122.47 119.039C122.47 125.309 117.387 130.391 111.117 130.391C104.848 130.391 99.7651 125.309 99.7651 119.039C99.7651 112.769 104.848 107.687 111.117 107.687C117.387 107.687 122.47 112.769 122.47 119.039ZM155.391 119.039C155.391 125.309 150.309 130.391 144.039 130.391C137.769 130.391 132.687 125.309 132.687 119.039C132.687 112.769 137.769 107.687 144.039 107.687C150.309 107.687 155.391 112.769 155.391 119.039ZM188.313 119.039C188.313 125.309 183.231 130.391 176.961 130.391C170.691 130.391 165.609 125.309 165.609 119.039C165.609 112.769 170.691 107.687 176.961 107.687C183.231 107.687 188.313 112.769 188.313 119.039ZM220.1 118.472C220.104 119.97 219.753 121.448 219.078 122.785C218.277 124.388 217.046 125.736 215.522 126.678C213.998 127.621 212.242 128.12 210.45 128.121C208.952 128.125 207.474 127.775 206.136 127.099L199.665 129.256L201.822 122.785C201.147 121.448 200.797 119.97 200.801 118.472C200.801 116.68 201.301 114.924 202.243 113.4C203.186 111.876 204.534 110.645 206.136 109.844C207.474 109.168 208.952 108.818 210.45 108.822H211.018C213.384 108.953 215.619 109.951 217.295 111.627C218.97 113.303 219.969 115.538 220.1 117.904V118.472ZM253.021 118.472C253.025 119.97 252.675 121.448 252 122.785C251.199 124.388 249.967 125.736 248.443 126.678C246.92 127.621 245.164 128.12 243.372 128.121C241.874 128.125 240.395 127.775 239.058 127.099L232.587 129.256L234.744 122.785C234.069 121.448 233.719 119.97 233.722 118.472C233.723 116.68 234.223 114.924 235.165 113.4C236.107 111.876 237.455 110.645 239.058 109.844C240.395 109.168 241.874 108.818 243.372 108.822H243.939C246.306 108.953 248.541 109.951 250.216 111.627C251.892 113.303 252.891 115.538 253.021 117.904V118.472ZM287.078 119.039C287.078 125.309 281.996 130.391 275.726 130.391C269.456 130.391 264.374 125.309 264.374 119.039C264.374 112.769 269.456 107.687 275.726 107.687C281.996 107.687 287.078 112.769 287.078 119.039ZM318.865 118.472C318.869 119.97 318.519 121.448 317.843 122.785C317.042 124.388 315.811 125.736 314.287 126.678C312.763 127.621 311.007 128.12 309.215 128.121C307.717 128.125 306.239 127.775 304.901 127.099L298.431 129.256L300.588 122.785C299.912 121.448 299.562 119.97 299.566 118.472C299.567 116.68 300.066 114.924 301.008 113.4C301.951 111.876 303.299 110.645 304.901 109.844C306.239 109.168 307.717 108.818 309.215 108.822H309.783C312.149 108.953 314.384 109.951 316.06 111.627C317.735 113.303 318.734 115.538 318.865 117.904V118.472ZM22.5694 151.393C22.5733 152.892 22.2232 154.37 21.5477 155.707C20.7467 157.31 19.5153 158.658 17.9915 159.6C16.4677 160.542 14.7116 161.042 12.9199 161.043C11.4216 161.047 9.94348 160.697 8.60605 160.021L2.13523 162.178L4.29217 155.707C3.61663 154.37 3.26656 152.892 3.27046 151.393C3.27116 149.602 3.77066 147.845 4.71302 146.322C5.65539 144.798 7.00339 143.566 8.60605 142.765C9.94348 142.09 11.4216 141.74 12.9199 141.744H13.4875C15.8538 141.874 18.0887 142.873 19.7644 144.549C21.4401 146.224 22.4389 148.459 22.5694 150.826V151.393ZM55.4911 151.393C55.495 152.892 55.1449 154.37 54.4694 155.707C53.6684 157.31 52.437 158.658 50.9132 159.6C49.3894 160.542 47.6333 161.042 45.8416 161.043C44.3433 161.047 42.8652 160.697 41.5278 160.021L35.0569 162.178L37.2139 155.707C36.5383 154.37 36.1883 152.892 36.1922 151.393C36.1929 149.602 36.6924 147.845 37.6347 146.322C38.5771 144.798 39.9251 143.566 41.5278 142.765C42.8652 142.09 44.3433 141.74 45.8416 141.744H46.4092C48.7755 141.874 51.0104 142.873 52.6861 144.549C54.3618 146.224 55.3606 148.459 55.4911 150.826V151.393ZM89.548 151.961C89.548 158.231 84.4654 163.313 78.1957 163.313C71.926 163.313 66.8434 158.231 66.8434 151.961C66.8434 145.691 71.926 140.609 78.1957 140.609C84.4654 140.609 89.548 145.691 89.548 151.961ZM121.335 151.393C121.338 152.892 120.988 154.37 120.313 155.707C119.512 157.31 118.28 158.658 116.757 159.6C115.233 160.542 113.477 161.042 111.685 161.043C110.187 161.047 108.709 160.697 107.371 160.021L100.9 162.178L103.057 155.707C102.382 154.37 102.032 152.892 102.036 151.393C102.036 149.602 102.536 147.845 103.478 146.322C104.421 144.798 105.769 143.566 107.371 142.765C108.709 142.09 110.187 141.74 111.685 141.744H112.253C114.619 141.874 116.854 142.873 118.53 144.549C120.205 146.224 121.204 148.459 121.335 150.826V151.393ZM154.256 151.393C154.26 152.892 153.91 154.37 153.235 155.707C152.434 157.31 151.202 158.658 149.678 159.6C148.155 160.542 146.398 161.042 144.607 161.043C143.108 161.047 141.63 160.697 140.293 160.021L133.822 162.178L135.979 155.707C135.303 154.37 134.953 152.892 134.957 151.393C134.958 149.602 135.457 147.845 136.4 146.322C137.342 144.798 138.69 143.566 140.293 142.765C141.63 142.09 143.108 141.74 144.607 141.744H145.174C147.541 141.874 149.776 142.873 151.451 144.549C153.127 146.224 154.126 148.459 154.256 150.826V151.393ZM188.313 151.961C188.313 158.231 183.231 163.313 176.961 163.313C170.691 163.313 165.609 158.231 165.609 151.961C165.609 145.691 170.691 140.609 176.961 140.609C183.231 140.609 188.313 145.691 188.313 151.961ZM221.235 151.961C221.235 158.231 216.152 163.313 209.883 163.313C203.613 163.313 198.53 158.231 198.53 151.961C198.53 145.691 203.613 140.609 209.883 140.609C216.152 140.609 221.235 145.691 221.235 151.961ZM253.021 151.393C253.025 152.892 252.675 154.37 252 155.707C251.199 157.31 249.967 158.658 248.443 159.6C246.92 160.542 245.164 161.042 243.372 161.043C241.874 161.047 240.395 160.697 239.058 160.021L232.587 162.178L234.744 155.707C234.069 154.37 233.719 152.892 233.722 151.393C233.723 149.602 234.223 147.845 235.165 146.322C236.107 144.798 237.455 143.566 239.058 142.765C240.395 142.09 241.874 141.74 243.372 141.744H243.939C246.306 141.874 248.541 142.873 250.216 144.549C251.892 146.224 252.891 148.459 253.021 150.826V151.393ZM287.078 151.961C287.078 158.231 281.996 163.313 275.726 163.313C269.456 163.313 264.374 158.231 264.374 151.961C264.374 145.691 269.456 140.609 275.726 140.609C281.996 140.609 287.078 145.691 287.078 151.961ZM320 151.961C320 158.231 314.917 163.313 308.648 163.313C302.378 163.313 297.295 158.231 297.295 151.961C297.295 145.691 302.378 140.609 308.648 140.609C314.917 140.609 320 145.691 320 151.961ZM23.7046 184.883C23.7046 191.152 18.622 196.235 12.3523 196.235C6.0826 196.235 1 191.152 1 184.883C1 178.613 6.0826 173.53 12.3523 173.53C18.622 173.53 23.7046 178.613 23.7046 184.883ZM56.6263 184.883C56.6263 191.152 51.5437 196.235 45.274 196.235C39.0043 196.235 33.9217 191.152 33.9217 184.883C33.9217 178.613 39.0043 173.53 45.274 173.53C51.5437 173.53 56.6263 178.613 56.6263 184.883ZM88.4128 184.315C88.4167 185.813 88.0666 187.291 87.3911 188.629C86.5901 190.231 85.3588 191.579 83.8349 192.522C82.3111 193.464 80.555 193.964 78.7633 193.964C77.265 193.968 75.7869 193.618 74.4495 192.943L67.9786 195.1L70.1356 188.629C69.46 187.291 69.11 185.813 69.1139 184.315C69.1146 182.523 69.6141 180.767 70.5564 179.243C71.4988 177.72 72.8468 176.488 74.4495 175.687C75.7869 175.012 77.265 174.662 78.7633 174.665H79.331C81.6972 174.796 83.9321 175.795 85.6078 177.47C87.2835 179.146 88.2823 181.381 88.4128 183.747V184.315ZM122.47 184.883C122.47 191.152 117.387 196.235 111.117 196.235C104.848 196.235 99.7651 191.152 99.7651 184.883C99.7651 178.613 104.848 173.53 111.117 173.53C117.387 173.53 122.47 178.613 122.47 184.883ZM155.391 184.883C155.391 191.152 150.309 196.235 144.039 196.235C137.769 196.235 132.687 191.152 132.687 184.883C132.687 178.613 137.769 173.53 144.039 173.53C150.309 173.53 155.391 178.613 155.391 184.883ZM187.178 184.315C187.182 185.813 186.832 187.291 186.156 188.629C185.355 190.231 184.124 191.579 182.6 192.522C181.076 193.464 179.32 193.964 177.528 193.964C176.03 193.968 174.552 193.618 173.215 192.943L166.744 195.1L168.901 188.629C168.225 187.291 167.875 185.813 167.879 184.315C167.88 182.523 168.379 180.767 169.322 179.243C170.264 177.72 171.612 176.488 173.215 175.687C174.552 175.012 176.03 174.662 177.528 174.665H178.096C180.462 174.796 182.697 175.795 184.373 177.47C186.049 179.146 187.047 181.381 187.178 183.747V184.315ZM221.235 184.883C221.235 191.152 216.152 196.235 209.883 196.235C203.613 196.235 198.53 191.152 198.53 184.883C198.53 178.613 203.613 173.53 209.883 173.53C216.152 173.53 221.235 178.613 221.235 184.883ZM254.157 184.883C254.157 191.152 249.074 196.235 242.804 196.235C236.535 196.235 231.452 191.152 231.452 184.883C231.452 178.613 236.535 173.53 242.804 173.53C249.074 173.53 254.157 178.613 254.157 184.883ZM287.078 184.883C287.078 191.152 281.996 196.235 275.726 196.235C269.456 196.235 264.374 191.152 264.374 184.883C264.374 178.613 269.456 173.53 275.726 173.53C281.996 173.53 287.078 178.613 287.078 184.883ZM320 184.883C320 191.152 314.917 196.235 308.648 196.235C302.378 196.235 297.295 191.152 297.295 184.883C297.295 178.613 302.378 173.53 308.648 173.53C314.917 173.53 320 178.613 320 184.883ZM23.7046 217.804C23.7046 224.074 18.622 229.157 12.3523 229.157C6.0826 229.157 1 224.074 1 217.804C1 211.535 6.0826 206.452 12.3523 206.452C18.622 206.452 23.7046 211.535 23.7046 217.804ZM55.4911 217.237C55.495 218.735 55.1449 220.213 54.4694 221.551C53.6684 223.153 52.437 224.501 50.9132 225.444C49.3894 226.386 47.6333 226.885 45.8416 226.886C44.3433 226.89 42.8652 226.54 41.5278 225.864L35.0569 228.021L37.2139 221.551C36.5383 220.213 36.1883 218.735 36.1922 217.237C36.1929 215.445 36.6924 213.689 37.6347 212.165C38.5771 210.641 39.9251 209.41 41.5278 208.609C42.8652 207.933 44.3433 207.583 45.8416 207.587H46.4092C48.7755 207.718 51.0104 208.716 52.6861 210.392C54.3618 212.068 55.3606 214.303 55.4911 216.669V217.237ZM89.548 217.804C89.548 224.074 84.4654 229.157 78.1957 229.157C71.926 229.157 66.8434 224.074 66.8434 217.804C66.8434 211.535 71.926 206.452 78.1957 206.452C84.4654 206.452 89.548 211.535 89.548 217.804ZM121.335 217.237C121.338 218.735 120.988 220.213 120.313 221.551C119.512 223.153 118.28 224.501 116.757 225.444C115.233 226.386 113.477 226.885 111.685 226.886C110.187 226.89 108.709 226.54 107.371 225.864L100.9 228.021L103.057 221.551C102.382 220.213 102.032 218.735 102.036 217.237C102.036 215.445 102.536 213.689 103.478 212.165C104.421 210.641 105.769 209.41 107.371 208.609C108.709 207.933 110.187 207.583 111.685 207.587H112.253C114.619 207.718 116.854 208.716 118.53 210.392C120.205 212.068 121.204 214.303 121.335 216.669V217.237ZM155.391 217.804C155.391 224.074 150.309 229.157 144.039 229.157C137.769 229.157 132.687 224.074 132.687 217.804C132.687 211.535 137.769 206.452 144.039 206.452C150.309 206.452 155.391 211.535 155.391 217.804ZM187.178 217.237C187.182 218.735 186.832 220.213 186.156 221.551C185.355 223.153 184.124 224.501 182.6 225.444C181.076 226.386 179.32 226.885 177.528 226.886C176.03 226.89 174.552 226.54 173.215 225.864L166.744 228.021L168.901 221.551C168.225 220.213 167.875 218.735 167.879 217.237C167.88 215.445 168.379 213.689 169.322 212.165C170.264 210.641 171.612 209.41 173.215 208.609C174.552 207.933 176.03 207.583 177.528 207.587H178.096C180.462 207.718 182.697 208.716 184.373 210.392C186.049 212.068 187.047 214.303 187.178 216.669V217.237ZM220.1 217.237C220.104 218.735 219.753 220.213 219.078 221.551C218.277 223.153 217.046 224.501 215.522 225.444C213.998 226.386 212.242 226.885 210.45 226.886C208.952 226.89 207.474 226.54 206.136 225.864L199.665 228.021L201.822 221.551C201.147 220.213 200.797 218.735 200.801 217.237C200.801 215.445 201.301 213.689 202.243 212.165C203.186 210.641 204.534 209.41 206.136 208.609C207.474 207.933 208.952 207.583 210.45 207.587H211.018C213.384 207.718 215.619 208.716 217.295 210.392C218.97 212.068 219.969 214.303 220.1 216.669V217.237ZM253.021 217.237C253.025 218.735 252.675 220.213 252 221.551C251.199 223.153 249.967 224.501 248.443 225.444C246.92 226.386 245.164 226.885 243.372 226.886C241.874 226.89 240.395 226.54 239.058 225.864L232.587 228.021L234.744 221.551C234.069 220.213 233.719 218.735 233.722 217.237C233.723 215.445 234.223 213.689 235.165 212.165C236.107 210.641 237.455 209.41 239.058 208.609C240.395 207.933 241.874 207.583 243.372 207.587H243.939C246.306 207.718 248.541 208.716 250.216 210.392C251.892 212.068 252.891 214.303 253.021 216.669V217.237ZM287.078 217.804C287.078 224.074 281.996 229.157 275.726 229.157C269.456 229.157 264.374 224.074 264.374 217.804C264.374 211.535 269.456 206.452 275.726 206.452C281.996 206.452 287.078 211.535 287.078 217.804ZM318.865 217.237C318.869 218.735 318.519 220.213 317.843 221.551C317.042 223.153 315.811 224.501 314.287 225.444C312.763 226.386 311.007 226.885 309.215 226.886C307.717 226.89 306.239 226.54 304.901 225.864L298.431 228.021L300.588 221.551C299.912 220.213 299.562 218.735 299.566 217.237C299.567 215.445 300.066 213.689 301.008 212.165C301.951 210.641 303.299 209.41 304.901 208.609C306.239 207.933 307.717 207.583 309.215 207.587H309.783C312.149 207.718 314.384 208.716 316.06 210.392C317.735 212.068 318.734 214.303 318.865 216.669V217.237ZM23.7046 250.726C23.7046 256.996 18.622 262.078 12.3523 262.078C6.0826 262.078 1 256.996 1 250.726C1 244.456 6.0826 239.374 12.3523 239.374C18.622 239.374 23.7046 244.456 23.7046 250.726ZM56.6263 250.726C56.6263 256.996 51.5437 262.078 45.274 262.078C39.0043 262.078 33.9217 256.996 33.9217 250.726C33.9217 244.456 39.0043 239.374 45.274 239.374C51.5437 239.374 56.6263 244.456 56.6263 250.726ZM89.548 250.726C89.548 256.996 84.4654 262.078 78.1957 262.078C71.926 262.078 66.8434 256.996 66.8434 250.726C66.8434 244.456 71.926 239.374 78.1957 239.374C84.4654 239.374 89.548 244.456 89.548 250.726ZM121.335 250.158C121.338 251.657 120.988 253.135 120.313 254.472C119.512 256.075 118.28 257.423 116.757 258.365C115.233 259.308 113.477 259.807 111.685 259.808C110.187 259.812 108.709 259.462 107.371 258.786L100.9 260.943L103.057 254.472C102.382 253.135 102.032 251.657 102.036 250.158C102.036 248.367 102.536 246.611 103.478 245.087C104.421 243.563 105.769 242.332 107.371 241.531C108.709 240.855 110.187 240.505 111.685 240.509H112.253C114.619 240.639 116.854 241.638 118.53 243.314C120.205 244.99 121.204 247.225 121.335 249.591V250.158ZM154.256 250.158C154.26 251.657 153.91 253.135 153.235 254.472C152.434 256.075 151.202 257.423 149.678 258.365C148.155 259.308 146.398 259.807 144.607 259.808C143.108 259.812 141.63 259.462 140.293 258.786L133.822 260.943L135.979 254.472C135.303 253.135 134.953 251.657 134.957 250.158C134.958 248.367 135.457 246.611 136.4 245.087C137.342 243.563 138.69 242.332 140.293 241.531C141.63 240.855 143.108 240.505 144.607 240.509H145.174C147.541 240.639 149.776 241.638 151.451 243.314C153.127 244.99 154.126 247.225 154.256 249.591V250.158ZM187.178 250.158C187.182 251.657 186.832 253.135 186.156 254.472C185.355 256.075 184.124 257.423 182.6 258.365C181.076 259.308 179.32 259.807 177.528 259.808C176.03 259.812 174.552 259.462 173.215 258.786L166.744 260.943L168.901 254.472C168.225 253.135 167.875 251.657 167.879 250.158C167.88 248.367 168.379 246.611 169.322 245.087C170.264 243.563 171.612 242.332 173.215 241.531C174.552 240.855 176.03 240.505 177.528 240.509H178.096C180.462 240.639 182.697 241.638 184.373 243.314C186.049 244.99 187.047 247.225 187.178 249.591V250.158ZM221.235 250.726C221.235 256.996 216.152 262.078 209.883 262.078C203.613 262.078 198.53 256.996 198.53 250.726C198.53 244.456 203.613 239.374 209.883 239.374C216.152 239.374 221.235 244.456 221.235 250.726ZM254.157 250.726C254.157 256.996 249.074 262.078 242.804 262.078C236.535 262.078 231.452 256.996 231.452 250.726C231.452 244.456 236.535 239.374 242.804 239.374C249.074 239.374 254.157 244.456 254.157 250.726ZM287.078 250.726C287.078 256.996 281.996 262.078 275.726 262.078C269.456 262.078 264.374 256.996 264.374 250.726C264.374 244.456 269.456 239.374 275.726 239.374C281.996 239.374 287.078 244.456 287.078 250.726ZM320 250.726C320 256.996 314.917 262.078 308.648 262.078C302.378 262.078 297.295 256.996 297.295 250.726C297.295 244.456 302.378 239.374 308.648 239.374C314.917 239.374 320 244.456 320 250.726ZM23.7046 283.648C23.7046 289.917 18.622 295 12.3523 295C6.0826 295 1 289.917 1 283.648C1 277.378 6.0826 272.295 12.3523 272.295C18.622 272.295 23.7046 277.378 23.7046 283.648ZM56.6263 283.648C56.6263 289.917 51.5437 295 45.274 295C39.0043 295 33.9217 289.917 33.9217 283.648C33.9217 277.378 39.0043 272.295 45.274 272.295C51.5437 272.295 56.6263 277.378 56.6263 283.648ZM89.548 283.648C89.548 289.917 84.4654 295 78.1957 295C71.926 295 66.8434 289.917 66.8434 283.648C66.8434 277.378 71.926 272.295 78.1957 272.295C84.4654 272.295 89.548 277.378 89.548 283.648ZM122.47 283.648C122.47 289.917 117.387 295 111.117 295C104.848 295 99.7651 289.917 99.7651 283.648C99.7651 277.378 104.848 272.295 111.117 272.295C117.387 272.295 122.47 277.378 122.47 283.648ZM155.391 283.648C155.391 289.917 150.309 295 144.039 295C137.769 295 132.687 289.917 132.687 283.648C132.687 277.378 137.769 272.295 144.039 272.295C150.309 272.295 155.391 277.378 155.391 283.648ZM188.313 283.648C188.313 289.917 183.231 295 176.961 295C170.691 295 165.609 289.917 165.609 283.648C165.609 277.378 170.691 272.295 176.961 272.295C183.231 272.295 188.313 277.378 188.313 283.648ZM221.235 283.648C221.235 289.917 216.152 295 209.883 295C203.613 295 198.53 289.917 198.53 283.648C198.53 277.378 203.613 272.295 209.883 272.295C216.152 272.295 221.235 277.378 221.235 283.648ZM253.021 283.08C253.025 284.578 252.675 286.056 252 287.394C251.199 288.997 249.967 290.345 248.443 291.287C246.92 292.229 245.164 292.729 243.372 292.73C241.874 292.733 240.395 292.383 239.058 291.708L232.587 293.865L234.744 287.394C234.069 286.056 233.719 284.578 233.722 283.08C233.723 281.288 234.223 279.532 235.165 278.008C236.107 276.485 237.455 275.253 239.058 274.452C240.395 273.777 241.874 273.427 243.372 273.431H243.939C246.306 273.561 248.541 274.56 250.216 276.236C251.892 277.911 252.891 280.146 253.021 282.512V283.08ZM287.078 283.648C287.078 289.917 281.996 295 275.726 295C269.456 295 264.374 289.917 264.374 283.648C264.374 277.378 269.456 272.295 275.726 272.295C281.996 272.295 287.078 277.378 287.078 283.648ZM320 283.648C320 289.917 314.917 295 308.648 295C302.378 295 297.295 289.917 297.295 283.648C297.295 277.378 302.378 272.295 308.648 272.295C314.917 272.295 320 277.378 320 283.648Z" stroke="#25356A" stroke-opacity="0.5" stroke-width="2" stroke-linecap="round" stroke-linejoin="round"/>
</svg>
