<svg width="53" height="18" viewBox="0 0 53 18" fill="none" xmlns="http://www.w3.org/2000/svg">
<path d="M2.07035 3.698H51.4514C51.8621 3.698 52.256 3.83149 52.5464 4.0691C52.8368 4.30672 53 4.629 53 4.96503V16.287C53 16.6231 52.8368 16.9454 52.5464 17.183C52.256 17.4206 51.8621 17.5541 51.4514 17.5541H1.54863C1.34439 17.5541 1.14217 17.521 0.953606 17.4568C0.765044 17.3926 0.593867 17.2985 0.449931 17.18C0.305995 17.0614 0.192142 16.9207 0.11493 16.766C0.0377172 16.6113 -0.00133063 16.4457 3.46008e-05 16.2786V5.3919C3.46008e-05 4.94265 0.218156 4.5118 0.606415 4.19413C0.994673 3.87646 1.52127 3.698 2.07035 3.698Z" fill="#29363F"/>
<path d="M5.04135 0.244698C5.16062 0.310206 5.26232 0.394897 5.34027 0.49361C5.41822 0.592323 5.47078 0.70299 5.49475 0.818863H4.60245C4.55324 0.752934 4.48117 0.700465 4.39542 0.668123C4.29744 0.629308 4.18957 0.610148 4.08073 0.612231C3.98948 0.608548 3.89832 0.620847 3.81335 0.648302C3.72838 0.675758 3.65155 0.71774 3.588 0.771439C3.46095 0.886611 3.39472 1.03821 3.40375 1.19317C3.39665 1.27583 3.41045 1.35879 3.44429 1.43689C3.47813 1.51498 3.53128 1.58654 3.60042 1.64708C3.76002 1.7584 3.96681 1.81378 4.17597 1.80121C4.30777 1.80574 4.43864 1.78117 4.55483 1.73007C4.6692 1.67556 4.76083 1.59411 4.81776 1.49634H3.97308V1.03904H5.51959V1.67418C5.40446 1.87695 5.22323 2.04983 4.99581 2.17382C4.72637 2.3164 4.40966 2.38739 4.08902 2.37707C3.80724 2.38242 3.52807 2.33186 3.27539 2.22972C3.05008 2.13681 2.86295 1.99197 2.73711 1.81307C2.61478 1.62602 2.55078 1.41716 2.55078 1.20503C2.55078 0.992891 2.61478 0.784035 2.73711 0.596988C2.86331 0.420363 3.04865 0.276965 3.27125 0.183725C3.52185 0.0800321 3.79999 0.0288211 4.08073 0.0346799C4.41979 0.0216556 4.75544 0.0950366 5.04135 0.244698Z" fill="#29363F"/>
<path d="M10.8967 2.35522L10.2756 1.50824H10.1887V2.35522H9.33984V0.0497352H10.6814C10.8945 0.045162 11.1063 0.0780899 11.3025 0.146291C11.46 0.201269 11.594 0.293234 11.6876 0.41055C11.7742 0.524896 11.8187 0.657202 11.8159 0.791692C11.8203 0.943888 11.7579 1.09232 11.64 1.2101C11.5071 1.3359 11.3287 1.42373 11.1307 1.46081L11.8263 2.35522H10.8967ZM10.1928 1.07628H10.6069C10.8429 1.07628 10.9609 0.994968 10.9609 0.834041C10.9618 0.802235 10.9543 0.770647 10.9389 0.741419C10.9236 0.712192 10.9007 0.686009 10.8719 0.664645C10.7969 0.616041 10.7022 0.592441 10.6069 0.59858H10.1928V1.07628Z" fill="#29363F"/>
<path d="M16.4523 0.561175V0.942344H17.4378V1.42685H16.4523V1.84529H17.5682V2.35352H15.6035V0.0495605H17.5682V0.557786L16.4523 0.561175Z" fill="#29363F"/>
<path d="M24.1854 0.0495605L23.1068 1.62338V2.35522H22.2621V1.62338L21.1855 0.0495605H22.1524L22.6927 0.928796L23.2269 0.0495605H24.1854Z" fill="#29363F"/>
<path d="M31.4276 0.0603027V2.35547H30.587V1.0529L30.0197 2.35547H29.291L28.7258 1.0529V2.35547H27.877V0.0603027H28.9121L29.6616 1.55089L30.3903 0.0603027H31.4276Z" fill="#29363F"/>
<path d="M37.2653 1.97266H36.1826L36.0232 2.35547H35.1309L36.2488 0.0603027H37.226L38.3378 2.35547H37.4413L37.2653 1.97266ZM37.0583 1.49669L36.7312 0.748006L36.3979 1.49669H37.0583Z" fill="#29363F"/>
<path d="M44.1738 2.03974C44.0781 2.15013 43.946 2.23592 43.7928 2.28703C43.6036 2.35183 43.3996 2.383 43.1945 2.3785C42.886 2.38876 42.5811 2.32137 42.3209 2.18541C42.2101 2.12496 42.1186 2.04382 42.0538 1.94869C41.989 1.85355 41.9528 1.74716 41.9482 1.63831H42.855C42.856 1.67216 42.8653 1.7055 42.8824 1.73635C42.8994 1.76719 42.9239 1.79491 42.9544 1.81786C43.0128 1.85677 43.086 1.87774 43.1614 1.87714C43.2242 1.87949 43.2861 1.86458 43.3374 1.83479C43.3581 1.81984 43.3744 1.80127 43.3852 1.78045C43.3959 1.75963 43.4008 1.73711 43.3995 1.71453C43.4011 1.67927 43.39 1.6444 43.3675 1.61428C43.3451 1.58415 43.3123 1.56011 43.2732 1.54516C43.1464 1.49346 43.014 1.4515 42.8778 1.41982C42.7153 1.37982 42.5563 1.33116 42.4016 1.27415C42.274 1.22526 42.163 1.15138 42.0786 1.05904C41.9836 0.952685 41.9354 0.823122 41.942 0.691491C41.9383 0.557802 41.9901 0.427037 42.089 0.320552C42.193 0.213722 42.3314 0.132769 42.4886 0.0868111C42.674 0.0309151 42.8706 0.0039141 43.0682 0.00720321C43.3615 -0.00452502 43.6517 0.0607578 43.8963 0.193519C43.999 0.254011 44.0834 0.332943 44.1429 0.424257C44.2025 0.51557 44.2357 0.616837 44.24 0.720285H43.3312C43.3258 0.660184 43.2942 0.603663 43.2421 0.56107C43.1899 0.524362 43.1225 0.505551 43.0537 0.508562C42.998 0.506111 42.943 0.519915 42.8985 0.54752C42.879 0.562285 42.8638 0.580469 42.8541 0.60071C42.8445 0.620951 42.8405 0.642721 42.8426 0.66439C42.8428 0.697159 42.8547 0.729163 42.8768 0.756521C42.8988 0.783879 42.9301 0.805417 42.9668 0.818524C43.0905 0.868771 43.2194 0.910142 43.3519 0.942171C43.5152 0.984412 43.6749 1.03533 43.8301 1.09461C43.9624 1.14888 44.0768 1.22848 44.1634 1.32666C44.2608 1.4334 44.3099 1.56453 44.3021 1.6976C44.3016 1.81952 44.257 1.93858 44.1738 2.03974Z" fill="#29363F"/>
<path d="M50.2653 2.03974C50.1725 2.14889 50.0441 2.23456 49.8947 2.28703C49.7055 2.35183 49.5015 2.383 49.2964 2.3785C48.9879 2.38876 48.683 2.32137 48.4228 2.18541C48.312 2.12496 48.2205 2.04382 48.1557 1.94869C48.0909 1.85355 48.0547 1.74716 48.0501 1.63831H48.9507C48.9517 1.67216 48.961 1.7055 48.9781 1.73635C48.9951 1.76719 49.0196 1.79491 49.0501 1.81786C49.1085 1.85677 49.1817 1.87774 49.2571 1.87714C49.3199 1.87949 49.3818 1.86458 49.4331 1.83479C49.4538 1.81984 49.4701 1.80127 49.4809 1.78045C49.4916 1.75963 49.4965 1.73711 49.4952 1.71453C49.4968 1.67927 49.4857 1.6444 49.4632 1.61428C49.4408 1.58415 49.408 1.56011 49.3689 1.54516C49.2421 1.49346 49.1097 1.4515 48.9735 1.41982C48.811 1.37982 48.652 1.33116 48.4973 1.27415C48.3697 1.22526 48.2587 1.15138 48.1743 1.05904C48.0793 0.952685 48.0311 0.823122 48.0377 0.691491C48.034 0.557802 48.0858 0.427037 48.1847 0.320552C48.2882 0.213322 48.4267 0.132279 48.5843 0.0868111C48.7697 0.0309151 48.9663 0.0039141 49.1639 0.00720321C49.4572 -0.00452502 49.7473 0.0607578 49.992 0.193519C50.0947 0.254011 50.1791 0.332943 50.2386 0.424257C50.2982 0.51557 50.3314 0.616837 50.3357 0.720285H49.4269C49.4215 0.660184 49.3899 0.603663 49.3378 0.56107C49.2856 0.524362 49.2182 0.505551 49.1494 0.508562C49.0937 0.506111 49.0387 0.519915 48.9942 0.54752C48.9747 0.562285 48.9595 0.580469 48.9498 0.60071C48.9402 0.620951 48.9362 0.642721 48.9383 0.66439C48.9385 0.697159 48.9504 0.729163 48.9725 0.756521C48.9945 0.783879 49.0258 0.805417 49.0625 0.818524C49.1862 0.868771 49.3151 0.910142 49.4476 0.942171C49.6109 0.984412 49.7706 1.03533 49.9258 1.09461C50.0566 1.14933 50.1695 1.2289 50.255 1.32666C50.3524 1.4334 50.4014 1.56453 50.3937 1.6976C50.3932 1.81952 50.3485 1.93858 50.2653 2.03974Z" fill="#29363F"/>
<path d="M50.3793 7.875H43.3672V9.078H50.3793V7.875Z" fill="#F8B826"/>
<path d="M50.3814 5.45312H43.3672V7.17395H50.3814V5.45312ZM44.305 6.65398V5.88503H49.4498V6.65398H44.305Z" fill="#F8B826"/>
<path d="M50.3793 9.77905H43.3672V10.8921H50.3793V9.77905Z" fill="#F8B826"/>
<path d="M43.3672 11.7222V12.4693C43.3672 12.649 43.4544 12.8214 43.6097 12.9485C43.765 13.0756 43.9757 13.147 44.1953 13.147H50.3814V11.7239L43.3672 11.7222Z" fill="#F8B826"/>
<path d="M50.3793 7.875H43.3672V9.078H50.3793V7.875Z" fill="#E99123"/>
<path d="M50.3814 5.45312H43.3672V7.17395H50.3814V5.45312ZM44.305 6.65398V6.01375H49.4498V6.65398H44.305Z" fill="#E99123"/>
<path d="M50.3793 9.77905H43.3672V10.8921H50.3793V9.77905Z" fill="#E99123"/>
<path d="M43.3672 11.7222V12.4693C43.3672 12.649 43.4544 12.8214 43.6097 12.9485C43.765 13.0756 43.9757 13.147 44.1953 13.147H50.3814V11.7239L43.3672 11.7222Z" fill="#E99123"/>
<path d="M27.4044 13.5736C27.4044 14.7424 27.8785 15.8044 29.3339 15.8044C29.3588 15.8044 35.1308 15.818 37.9879 15.818V13.9463H31.4167C30.4457 13.9463 30.1248 13.6786 30.1248 12.8774C30.1248 12.4709 30.1248 12.0644 30.1248 11.6104H36.6939V9.70816H30.1517V7.36891H37.9879V5.45312H27.4023C27.4023 8.15995 27.403 10.8668 27.4044 13.5736Z" fill="white"/>
<path d="M2.52344 15.818H5.23555V11.5833H11.8005V9.68952H5.27695V7.34011H13.1069V5.45312H2.52344V15.818Z" fill="white"/>
<path d="M49.7854 13.9466H43.8187C42.8436 13.9466 42.5186 13.6807 42.5186 12.8879C42.5186 10.4103 42.5186 7.93269 42.5186 5.45508H39.7961C39.7961 8.21275 39.7961 10.9693 39.7961 13.7247C39.7789 14.184 39.9475 14.6351 40.2759 15.0079C40.6042 15.3806 41.0738 15.6543 41.6118 15.7862C41.6722 15.8005 41.7338 15.8113 41.796 15.8184H50.392V13.9466H49.7854Z" fill="white"/>
<path d="M22.8489 12.9298C22.8489 13.7446 22.3086 13.9461 21.7351 13.9461H18.2031C17.6276 13.9461 17.0872 13.748 17.0872 12.9298V5.45312H14.373V13.9224C14.373 15.701 16.2073 15.8162 16.3626 15.8162H23.5735C23.7288 15.8162 25.5631 15.701 25.5631 13.9224V5.45312H22.8489V12.9298Z" fill="white"/>
</svg>
