<svg width="925" height="279" viewBox="0 0 925 279" fill="none" xmlns="http://www.w3.org/2000/svg">
<g clip-path="url(#clip0)">
<path d="M205.527 9.27561C214.66 15.4681 220.819 23.8553 224.002 34.4896H208.241C205.501 28.0097 200.934 22.784 194.514 18.8386C188.121 14.8932 180.527 12.9075 171.759 12.9075C163.879 12.9075 156.807 14.6058 150.57 18.0025C144.333 21.3992 139.427 26.233 135.878 32.5038C132.329 38.7747 130.529 46.169 130.529 54.6869C130.529 63.3877 132.329 70.9127 135.957 77.2619C139.558 83.585 144.594 88.4449 150.988 91.8416C157.407 95.2383 164.766 96.9367 173.09 96.9367C180.214 96.9367 186.738 95.5258 192.636 92.6778C198.559 89.8559 203.387 85.7014 207.171 80.2928C210.955 74.8843 213.225 68.5089 213.982 61.2191H168.497V50.8983H226.664V63.649C225.672 72.1669 222.828 79.8487 218.131 86.7466C213.407 93.6445 207.066 99.1054 199.081 103.155C191.096 107.205 181.989 109.243 171.812 109.243C160.643 109.243 150.779 106.944 142.246 102.319C133.712 97.7206 127.058 91.2668 122.283 83.0102C117.507 74.7536 115.133 65.3212 115.133 54.6608C115.133 44.0265 117.507 34.568 122.283 26.3114C127.058 18.0548 133.712 11.601 142.246 6.95018C150.753 2.32544 160.538 0 171.603 0C185.068 0 196.393 3.08316 205.527 9.27561Z" fill="#B6BDC9"/>
<path d="M447.273 108.172L417.055 64.4072H400.798V108.172H385.845V1.04565H423.97C437.122 1.04565 446.96 3.97204 453.536 9.77257C460.112 15.5992 463.4 23.3333 463.4 32.9485C463.4 41.6493 460.765 48.6779 455.52 53.982C450.274 59.3122 442.655 62.6305 432.686 63.9369L464.235 108.146H447.273V108.172ZM400.772 54.4H422.613C439.601 54.4 448.082 47.5021 448.082 33.7324C448.082 19.9627 439.601 13.0648 422.613 13.0648H400.772V54.4Z" fill="#B6BDC9"/>
<path d="M635.551 12.307V48.9392H679.574V59.5735H635.551V96.9372H684.506V108.172H620.598V1.04565H684.506V12.2809H635.551V12.307Z" fill="#B6BDC9"/>
<path d="M925 1.07153L887.057 67.6208V108.172H871.948V67.6208L833.823 1.07153H851.229L879.646 52.8843L907.908 1.07153H925Z" fill="#B6BDC9"/>
<path d="M243.312 170.801V277.927H211.293V217.152L189.765 277.927H161.999L140.471 217.152V277.927H108.113V170.801H147.699L176.274 240.381L204.065 170.801H243.312Z" fill="#424954"/>
<path d="M450.979 260.003H409.748L403.329 277.927H369.327L411.888 170.801H449.178L491.557 277.927H457.398L450.979 260.003ZM442.915 237.507L430.442 202.547L417.786 237.507H442.915Z" fill="#424954"/>
<path d="M699.197 263.192C695.909 268.051 691.081 271.892 684.74 274.74C678.399 277.588 670.779 278.999 661.907 278.999C648.442 278.999 637.351 276.021 628.635 270.037C619.92 264.054 615.196 255.562 614.413 244.51H648.755C649.094 248.246 650.347 251.042 652.539 252.871C654.731 254.7 657.418 255.614 660.576 255.614C663.42 255.614 665.639 254.961 667.23 253.629C668.822 252.322 669.605 250.441 669.605 248.011C669.605 244.771 668.013 242.263 664.83 240.486C661.646 238.709 656.61 236.776 649.72 234.633C642.388 232.308 636.334 230.035 631.558 227.787C626.783 225.567 622.686 222.222 619.241 217.754C615.796 213.286 614.074 207.564 614.074 200.588C614.074 193.899 615.927 188.151 619.659 183.343C623.39 178.535 628.479 174.877 634.924 172.395C641.396 169.913 648.729 168.685 656.949 168.685C670.31 168.685 680.956 171.585 688.889 177.412C696.822 183.238 701.18 191.417 701.937 201.946H667.283C666.839 198.602 665.717 196.12 663.916 194.5C662.116 192.88 659.715 192.07 656.766 192.07C654.235 192.07 652.278 192.671 650.842 193.899C649.407 195.127 648.703 196.93 648.703 199.36C648.703 202.391 650.268 204.768 653.374 206.493C656.505 208.217 661.385 210.151 668.065 212.267C675.398 214.697 681.478 217.075 686.306 219.4C691.134 221.726 695.283 225.122 698.78 229.59C702.276 234.058 704.025 239.833 704.025 246.914C704.129 252.897 702.485 258.332 699.197 263.192Z" fill="#424954"/>
<path d="M916.388 263.192C913.1 268.051 908.273 271.892 901.932 274.74C895.59 277.588 887.971 278.999 879.098 278.999C865.633 278.999 854.542 276.021 845.827 270.037C837.111 264.054 832.387 255.562 831.605 244.51H865.946C866.285 248.246 867.538 251.042 869.73 252.871C871.922 254.7 874.61 255.614 877.767 255.614C880.612 255.614 882.83 254.961 884.422 253.629C886.013 252.322 886.796 250.441 886.796 248.011C886.796 244.771 885.204 242.263 882.021 240.486C878.837 238.709 873.801 236.776 866.912 234.633C859.579 232.308 853.525 230.035 848.749 227.787C843.974 225.567 839.877 222.222 836.432 217.754C832.988 213.286 831.265 207.564 831.265 200.588C831.265 193.899 833.118 188.151 836.85 183.343C840.581 178.535 845.67 174.877 852.116 172.395C858.587 169.913 865.92 168.685 874.14 168.685C887.501 168.685 898.148 171.585 906.081 177.412C914.014 183.238 918.372 191.417 919.128 201.946H884.474C884.03 198.602 882.908 196.12 881.107 194.5C879.307 192.88 876.906 192.07 873.957 192.07C871.426 192.07 869.469 192.671 868.034 193.899C866.598 195.127 865.894 196.93 865.894 199.36C865.894 202.391 867.46 204.768 870.565 206.493C873.696 208.217 878.576 210.151 885.257 212.267C892.589 214.697 898.67 217.075 903.497 219.4C908.325 221.726 912.474 225.122 915.971 229.59C919.468 234.058 921.216 239.833 921.216 246.914C921.32 252.897 919.676 258.332 916.388 263.192Z" fill="#424954"/>
<path d="M16.3618 0.418213H0V277.929H16.3618V0.418213Z" fill="#0091E2"/>
</g>
<defs>
<clipPath id="clip0">
<rect width="925" height="279" fill="white"/>
</clipPath>
</defs>
</svg>
