<svg width="22" height="23" viewBox="0 0 22 23" fill="none" xmlns="http://www.w3.org/2000/svg">
<path d="M12.7013 6.29998C12.5181 6.48691 12.4155 6.73823 12.4155 6.99998C12.4155 7.26173 12.5181 7.51305 12.7013 7.69998L14.3013 9.29998C14.4882 9.48321 14.7396 9.58584 15.0013 9.58584C15.2631 9.58584 15.5144 9.48321 15.7013 9.29998L19.4713 5.52998C19.9742 6.64117 20.1264 7.87921 19.9078 9.07913C19.6892 10.279 19.11 11.3838 18.2476 12.2463C17.3852 13.1087 16.2804 13.6878 15.0805 13.9064C13.8806 14.1251 12.6425 13.9728 11.5313 13.47L4.62132 20.38C4.2235 20.7778 3.68393 21.0013 3.12132 21.0013C2.55871 21.0013 2.01914 20.7778 1.62132 20.38C1.2235 19.9822 1 19.4426 1 18.88C1 18.3174 1.2235 17.7778 1.62132 17.38L8.53132 10.47C8.02848 9.35879 7.87624 8.12075 8.09486 6.92083C8.31349 5.72092 8.89261 4.61614 9.75504 3.7537C10.6175 2.89127 11.7223 2.31215 12.9222 2.09352C14.1221 1.8749 15.3601 2.02714 16.4713 2.52998L12.7113 6.28998L12.7013 6.29998Z" stroke="white" stroke-width="2" stroke-linecap="round" stroke-linejoin="round"/>
</svg>
