<svg width="20" height="24" viewBox="0 0 20 24" fill="none" xmlns="http://www.w3.org/2000/svg">
<path d="M20 17.6076C19.214 19.8876 16.861 23.9248 14.437 23.9688C12.829 23.9998 12.312 23.0157 10.474 23.0157C8.637 23.0157 8.062 23.9388 6.542 23.9988C3.97 24.0978 0 18.1716 0 13.0034C0 8.25627 3.308 5.90319 6.198 5.86019C7.748 5.83219 9.212 6.90522 10.157 6.90522C11.106 6.90522 12.884 5.61518 14.753 5.80419C15.535 5.83719 17.732 6.1192 19.142 8.18126C15.401 10.6233 15.984 15.7305 20 17.6076ZM14.778 0C11.952 0.114004 9.646 3.0791 9.968 5.53118C12.58 5.73419 15.086 2.80609 14.778 0Z" fill="black"/>
</svg>
