<svg width="23" height="22" viewBox="0 0 23 22" fill="none" xmlns="http://www.w3.org/2000/svg">
<path d="M14.6211 6.49999L18.1704 3M20.1986 1L18.1704 3L20.1986 1ZM10.4532 10.61C10.9768 11.1194 11.3931 11.726 11.678 12.3948C11.9629 13.0635 12.1108 13.7812 12.1133 14.5066C12.1158 15.232 11.9727 15.9507 11.6923 16.6213C11.412 17.2919 10.9999 17.9012 10.4797 18.4141C9.95958 18.927 9.34169 19.3334 8.66163 19.6099C7.98156 19.8863 7.25276 20.0274 6.51717 20.025C5.78159 20.0226 5.05376 19.8767 4.37559 19.5957C3.69742 19.3148 3.0823 18.9043 2.56566 18.388C1.54968 17.3507 0.987503 15.9614 1.00021 14.5193C1.01292 13.0772 1.59949 11.6977 2.6336 10.678C3.66771 9.65824 5.06661 9.07981 6.529 9.06728C7.99139 9.05475 9.40027 9.60912 10.4522 10.611L10.4532 10.61ZM10.4532 10.61L14.6211 6.49999L10.4532 10.61ZM14.6211 6.49999L17.6633 9.49999L21.2126 5.99999L18.1704 3L14.6211 6.49999Z" stroke="black" stroke-width="2" stroke-linecap="round" stroke-linejoin="round"/>
</svg>
