<svg width="18" height="24" viewBox="0 0 18 24" fill="none" xmlns="http://www.w3.org/2000/svg">
<path d="M17.581 19.049C17.031 18.603 17.245 17.618 16.674 17.132C17.227 13.767 15.677 10.801 13.829 8.9C12.278 7.305 12.778 5.753 12.778 4.41C12.778 2.264 11.897 0 9.228 0C6.375 0 5.593 2.38 5.565 3.738C5.497 7 6.224 7.848 4.315 10.222C2.069 13.015 1.738 15.801 2.245 17.279C2.008 17.555 1.688 17.861 1.09 18.114C-0.562 18.834 0.649 20.039 0.192 20.894C0.0619999 21.137 0 21.391 0 21.634C0 22.384 0.596 23.033 1.679 22.936C3.14 22.806 4.488 23.841 5.36 23.841C6.13 23.841 6.762 23.403 7.056 22.8C8.433 22.461 10.133 22.504 11.509 22.859C11.756 23.55 12.426 24 13.171 24C14.802 24 15.116 22.151 16.987 21.525C17.661 21.3 18 20.646 18 20.037C18 19.647 17.861 19.276 17.581 19.049ZM8.434 8.584C8.115 8.584 7.851 8.326 7.434 8.016C6.906 7.624 6.369 7.398 6.375 6.986C6.375 6.703 6.754 6.616 7.244 6.305C7.77 5.972 7.975 5.634 8.493 5.634C9.023 5.634 9.183 5.902 9.903 6.213C10.611 6.52 11.104 6.64 11.104 6.986C11.104 7.341 10.363 7.595 9.946 7.854C9.333 8.232 9.018 8.584 8.434 8.584ZM10.099 3.369C10.981 3.51 11.08 5.06 10.658 5.823L10.303 5.678C10.487 5.135 10.484 4.241 9.868 4.184C9.477 4.148 9.225 4.664 9.171 5.106C9.018 5.042 8.851 4.996 8.648 4.979C8.71 4.056 9.306 3.242 10.099 3.369ZM6.696 3.7C7.372 3.532 7.771 4.318 7.774 5.135L7.464 5.325C7.422 4.982 7.269 4.428 6.885 4.546C6.474 4.674 6.541 5.629 6.77 5.825L6.464 5.995C6.044 5.288 6.045 3.862 6.696 3.7ZM4.581 22.943C2.618 22.05 1.951 22.253 1.576 22.253C0.799 22.253 0.545 21.674 0.837 21.126C1.085 20.661 1.008 20.174 0.947 19.783C0.853 19.184 0.836 18.989 1.425 18.731C2.24 18.385 2.602 17.94 2.872 17.607C3.63 16.67 4.395 18.144 5.022 19.457C5.429 20.308 6.23 20.739 6.477 21.682C6.704 22.553 5.767 23.483 4.581 22.943ZM11.568 21.069C10.184 21.742 8.421 22.051 7.102 21.368C6.907 20.805 6.595 20.441 6.259 20.075C6.798 19.933 7.198 19.261 6.719 18.586C6.208 17.865 5.164 17.362 4.109 16.546C3.122 15.783 2.81 13.902 4.154 11.8C3.499 13.662 3.882 15.378 4.211 15.869C4.279 14.881 4.357 13.231 5.707 11.254C6.388 10.256 6.398 8.938 6.413 8.114L7.033 8.538C7.489 8.875 7.871 9.246 8.419 9.246C9.229 9.246 9.677 8.78 10.301 8.393C10.545 8.243 10.914 8.091 11.224 7.88C11.744 10.356 13.898 13.334 14.019 15.03C14.52 13.998 13.877 11.516 13.877 11.516C14.719 12.801 14.786 13.872 14.823 15.186C15.412 15.427 16.044 16.055 16.102 16.882L15.857 16.854C15.731 15.935 13.25 14.585 13.027 16.315C11.837 16.496 12.27 18.381 12.03 19.603C11.92 20.162 11.716 20.604 11.568 21.069ZM16.414 21.028C15.429 21.408 14.764 22.215 14.307 22.716C13.427 23.682 12.263 23.219 12.139 22.315C12.008 21.349 12.499 20.822 12.711 19.741C12.904 18.754 12.688 17.235 13.142 17.073C13.437 18.826 15.208 18.089 15.612 17.611C16.269 17.611 16.324 17.833 16.471 18.448C16.563 18.833 16.69 19.157 17.049 19.538C17.467 19.985 17.339 20.671 16.414 21.028ZM8.414 8.022C7.763 8.022 7.276 7.589 6.88 7.253C6.677 7.082 6.93 6.766 7.133 6.938C7.52 7.266 7.91 7.613 8.414 7.613C9.021 7.613 9.556 7.094 10.281 6.808C10.528 6.711 10.669 7.093 10.424 7.19C9.72 7.467 9.155 8.022 8.414 8.022Z" fill="black"/>
</svg>
