<svg width="18" height="22" viewBox="0 0 18 22" fill="none" xmlns="http://www.w3.org/2000/svg">
<path d="M9 21C9 21 17 17 17 11V4L9 1L1 4V11C1 17 9 21 9 21Z" stroke="white" stroke-width="2" stroke-linecap="round" stroke-linejoin="round"/>
<path d="M11.9167 9.58331H6.08333C5.6231 9.58331 5.25 9.95641 5.25 10.4166V13.3333C5.25 13.7936 5.6231 14.1666 6.08333 14.1666H11.9167C12.3769 14.1666 12.75 13.7936 12.75 13.3333V10.4166C12.75 9.95641 12.3769 9.58331 11.9167 9.58331Z" stroke="white" stroke-width="2" stroke-linecap="round" stroke-linejoin="round"/>
<path d="M6.91602 9.58331V7.91665C6.91602 7.36411 7.13551 6.83421 7.52621 6.44351C7.91691 6.05281 8.44681 5.83331 8.99935 5.83331C9.55188 5.83331 10.0818 6.05281 10.4725 6.44351C10.8632 6.83421 11.0827 7.36411 11.0827 7.91665V9.58331" stroke="white" stroke-width="2" stroke-linecap="round" stroke-linejoin="round"/>
</svg>
