<svg width="20" height="23" viewBox="0 0 20 23" fill="none" xmlns="http://www.w3.org/2000/svg">
<path d="M17 10.0017H3C1.89543 10.0017 1 10.9177 1 12.0476V19.2081C1 20.3379 1.89543 21.2539 3 21.2539H17C18.1046 21.2539 19 20.3379 19 19.2081V12.0476C19 10.9177 18.1046 10.0017 17 10.0017Z" stroke="black" stroke-width="2" stroke-linecap="round" stroke-linejoin="round"/>
<path d="M5 10.0017V6.00095C5 4.67462 5.52678 3.4026 6.46447 2.46474C7.40215 1.52688 8.67392 1 10 1C11.3261 1 12.5979 1.52688 13.5355 2.46474C14.4732 3.4026 15 4.67462 15 6.00095V10.0017" stroke="black" stroke-width="2" stroke-linecap="round" stroke-linejoin="round"/>
</svg>
