<svg width="24" height="20" viewBox="0 0 24 20" fill="none" xmlns="http://www.w3.org/2000/svg">
<path fill-rule="evenodd" clip-rule="evenodd" d="M18.3844 19.7789C18.7064 20.0069 19.1214 20.0639 19.4914 19.9239C19.8614 19.7829 20.1334 19.4669 20.2154 19.0839C21.0844 14.9999 23.1924 4.6629 23.9834 0.947904C24.0434 0.667904 23.9434 0.376904 23.7234 0.189904C23.5034 0.00290415 23.1984 -0.051096 22.9264 0.049904C18.7334 1.6019 5.8204 6.4469 0.542398 8.3999C0.207398 8.5239 -0.0106021 8.8459 0.000397854 9.1989C0.0123979 9.5529 0.250398 9.8599 0.593398 9.9629C2.9604 10.6709 6.0674 11.6559 6.0674 11.6559C6.0674 11.6559 7.5194 16.0409 8.2764 18.2709C8.3714 18.5509 8.5904 18.7709 8.8794 18.8469C9.1674 18.9219 9.4754 18.8429 9.6904 18.6399C10.9064 17.4919 12.7864 15.7169 12.7864 15.7169C12.7864 15.7169 16.3584 18.3359 18.3844 19.7789ZM7.3744 11.1019L9.0534 16.6399L9.4264 13.1329C9.4264 13.1329 15.9134 7.2819 19.6114 3.9469C19.7194 3.8489 19.7344 3.6849 19.6444 3.5699C19.5554 3.4549 19.3914 3.4279 19.2684 3.5059C14.9824 6.2429 7.3744 11.1019 7.3744 11.1019Z" fill="black"/>
</svg>
