<svg width="24" height="21" viewBox="0 0 24 21" fill="none" xmlns="http://www.w3.org/2000/svg">
<path d="M16 19.0059V17.0059C16 15.945 15.5786 14.9276 14.8284 14.1774C14.0783 13.4273 13.0609 13.0059 12 13.0059H5C3.93913 13.0059 2.92172 13.4273 2.17157 14.1774C1.42143 14.9276 1 15.945 1 17.0059V19.0059" stroke="black" stroke-width="2" stroke-linecap="round" stroke-linejoin="round"/>
<path d="M8.5 9.00586C10.7091 9.00586 12.5 7.215 12.5 5.00586C12.5 2.79672 10.7091 1.00586 8.5 1.00586C6.29086 1.00586 4.5 2.79672 4.5 5.00586C4.5 7.215 6.29086 9.00586 8.5 9.00586Z" stroke="black" stroke-width="2" stroke-linecap="round" stroke-linejoin="round"/>
<path d="M20 6.00586V12.0059" stroke="black" stroke-width="2" stroke-linecap="round" stroke-linejoin="round"/>
<path d="M23 9.00586H17" stroke="black" stroke-width="2" stroke-linecap="round" stroke-linejoin="round"/>
</svg>
