<svg xmlns="http://www.w3.org/2000/svg" width="256" height="256" viewBox="0 0 256 256">
  <defs>
    <style>
      .cls-1 {
        fill: #464646;
      }

      .cls-2 {
        fill: #939598;
      }

      .cls-3 {
        fill: #454545;
      }

      .cls-4 {
        fill: #818285;
      }
    </style>
  </defs>
  <title>greymass-logo</title>
  <g id="gm">
    <g>
      <rect class="cls-1" x="125.71" y="187.77" width="1.06" height="19.84"/>
      <g>
        <path class="cls-2" d="M21.16,192.33a5.59,5.59,0,0,1,2.3,3.13h-2a4.21,4.21,0,0,0-1.71-1.94,5.3,5.3,0,0,0-2.83-.74,5.48,5.48,0,0,0-2.64.63,4.68,4.68,0,0,0-1.83,1.81,6.12,6.12,0,0,0,0,5.55,4.61,4.61,0,0,0,1.87,1.82,5.84,5.84,0,0,0,2.75.63,5.55,5.55,0,0,0,2.43-.53,4.5,4.5,0,0,0,1.81-1.54,4.89,4.89,0,0,0,.85-2.37H16.55V197.5h7.23v1.59A6.17,6.17,0,0,1,22.72,202a6.06,6.06,0,0,1-2.37,2,7.29,7.29,0,0,1-3.39.76,7.66,7.66,0,0,1-3.68-.86,6.16,6.16,0,0,1-2.48-2.4,7.41,7.41,0,0,1,0-7A6.32,6.32,0,0,1,13.28,192a7.61,7.61,0,0,1,3.66-.86A7.37,7.37,0,0,1,21.16,192.33Z"/>
        <path class="cls-2" d="M50.66,204.62l-3.76-5.44h-2v5.44H43V191.31h4.75a5.4,5.4,0,0,1,3.67,1.08,3.67,3.67,0,0,1,1.23,2.88,3.59,3.59,0,0,1-1,2.62,4.71,4.71,0,0,1-2.84,1.23l3.92,5.5Zm-5.79-6.69h2.72c2.11,0,3.17-.85,3.17-2.56s-1.06-2.57-3.17-2.57H44.87Z"/>
        <path class="cls-2" d="M73.5,192.7v4.55H79v1.33H73.5v4.64h6.09v1.4H71.65V191.31h7.94v1.39Z"/>
        <path class="cls-2" d="M108.94,191.31l-4.72,8.27v5h-1.88v-5l-4.74-8.27h2.17l3.53,6.43,3.52-6.43Z"/>
      </g>
      <g>
        <path class="cls-3" d="M161.75,191.31v13.31h-4v-7.55l-2.68,7.55h-3.45L149,197.07v7.55h-4V191.31h4.93l3.55,8.64,3.46-8.64Z"/>
        <path class="cls-3" d="M187.58,202.39h-5.13l-.79,2.23h-4.23l5.29-13.31h4.64l5.27,13.31h-4.25Zm-1-2.79L185,195.25l-1.57,4.35Z"/>
        <path class="cls-3" d="M218.46,202.79a4.15,4.15,0,0,1-1.8,1.43,7,7,0,0,1-2.84.53,7.16,7.16,0,0,1-4.13-1.11,4,4,0,0,1-1.77-3.18h4.27a1.44,1.44,0,0,0,.47,1,1.48,1.48,0,0,0,1,.34,1.3,1.3,0,0,0,.83-.24.86.86,0,0,0,.29-.7,1,1,0,0,0-.59-.94,10.06,10.06,0,0,0-1.88-.72,21.33,21.33,0,0,1-2.26-.85,4.25,4.25,0,0,1-1.53-1.25,3.76,3.76,0,0,1,0-4.27,4.2,4.2,0,0,1,1.9-1.36,7.6,7.6,0,0,1,2.74-.47,6.63,6.63,0,0,1,4,1.09,4,4,0,0,1,1.62,3.05H214.5a1.5,1.5,0,0,0-.42-.93,1.3,1.3,0,0,0-.89-.3,1.13,1.13,0,0,0-.74.23.85.85,0,0,0-.26.68,1,1,0,0,0,.58.88,10.16,10.16,0,0,0,1.83.72,19,19,0,0,1,2.27.89,4.36,4.36,0,0,1,1.55,1.26,3.37,3.37,0,0,1,.66,2.16A3.54,3.54,0,0,1,218.46,202.79Z"/>
        <path class="cls-3" d="M245.48,202.79a4.15,4.15,0,0,1-1.8,1.43,7,7,0,0,1-2.84.53,7.17,7.17,0,0,1-4.14-1.11,4,4,0,0,1-1.77-3.18h4.28a1.4,1.4,0,0,0,.47,1,1.48,1.48,0,0,0,1,.34,1.25,1.25,0,0,0,.82-.24.87.87,0,0,0,.3-.7,1,1,0,0,0-.59-.94,10.36,10.36,0,0,0-1.88-.72,19.77,19.77,0,0,1-2.26-.85,4.25,4.25,0,0,1-1.53-1.25,3.71,3.71,0,0,1,.05-4.27,4.14,4.14,0,0,1,1.9-1.36,7.57,7.57,0,0,1,2.74-.47,6.6,6.6,0,0,1,4,1.09,4,4,0,0,1,1.63,3.05h-4.32a1.44,1.44,0,0,0-.41-.93,1.31,1.31,0,0,0-.89-.3,1.11,1.11,0,0,0-.74.23.82.82,0,0,0-.26.68,1,1,0,0,0,.58.88,10.16,10.16,0,0,0,1.83.72,18.08,18.08,0,0,1,2.26.89,4.48,4.48,0,0,1,1.56,1.26,3.43,3.43,0,0,1,.65,2.16A3.53,3.53,0,0,1,245.48,202.79Z"/>
      </g>
    </g>
  </g>
  <g id="brain">
    <path class="cls-4" d="M154.56,151.09a14.09,14.09,0,0,0-1.24-1.9c-.46-.61-.94-1.19-1.44-1.77-1-1.14-2.06-2.23-3.15-3.29a74.87,74.87,0,0,0-6.89-5.88,49,49,0,0,0-7.43-4.75,24.25,24.25,0,0,0-3.84-1.57,10.41,10.41,0,0,0-3.57-.5,5.79,5.79,0,0,0-.76.11c-.12,0-.23.06-.35.09l-.16.05-.09,0,.07,0a1.61,1.61,0,0,0,.24-.11,2.45,2.45,0,0,0,.51-.36,2.78,2.78,0,0,0-.24-4.33,1.89,1.89,0,0,0-.35-.2l-.05,0h0l.22,0c.26,0,.59.1.93.14,1.37.17,2.86.25,4.33.29a73.49,73.49,0,0,0,8.9-.33c1.48-.14,2.95-.33,4.4-.58s2.88-.54,4.28-.91A34.89,34.89,0,0,0,153,124a24.93,24.93,0,0,0,3.74-1.83,13.83,13.83,0,0,0,5.36-5.54,8.53,8.53,0,0,0,.39-.87l.17-.45.18-.54a6.65,6.65,0,0,1,2-3,7.78,7.78,0,0,1,3-1.54L169,110l.94-.26a13.17,13.17,0,0,0,3.5-1.79,14.33,14.33,0,0,0,2.9-2.82,18.85,18.85,0,0,0,3.5-7.57,20.58,20.58,0,0,0,.48-4.21,18.52,18.52,0,0,0-.09-2.11c0-.35-.08-.7-.15-1l-.09-.52-.11-.55c-.31-1.47-.68-2.93-1.12-4.36s-.91-2.85-1.48-4.24a44.39,44.39,0,0,0-9.73-14.91,45.88,45.88,0,0,0-14.9-9.89A59.17,59.17,0,0,0,135,51.49a79.53,79.53,0,0,0-9.14-.29c-3.05.09-6.1.34-9.14.72a120.54,120.54,0,0,0-18,3.8A55.77,55.77,0,0,0,82.41,63.4a46.06,46.06,0,0,0-6.84,5.84,36.25,36.25,0,0,0-5.38,7.11,24.84,24.84,0,0,0-3.06,8.12A15.78,15.78,0,0,0,67,88.63a10.5,10.5,0,0,0,1.1,3.77A8.1,8.1,0,0,0,69.13,94a4.63,4.63,0,0,0,.62.63,7.24,7.24,0,0,0,.69.51,11.19,11.19,0,0,0,3.7,1.27c1.42.28,3,.48,4.59.8a17.39,17.39,0,0,1,5,1.7L84,99l.28.28h0a45.56,45.56,0,0,0,4,3.68,51.62,51.62,0,0,0,4.45,3.2,49,49,0,0,0,4.81,2.67,53.17,53.17,0,0,0,5.08,2.18,60.36,60.36,0,0,0,21.9,3.55,57.29,57.29,0,0,0,11.14-1.34,45.43,45.43,0,0,0,10.59-3.64,28.79,28.79,0,0,0,8.9-6.62,18.54,18.54,0,0,0,3-4.66,16.51,16.51,0,0,0,1.41-5.41l.75,0a17.15,17.15,0,0,1-1,5.83,19.91,19.91,0,0,1-2.89,5.22,29.62,29.62,0,0,1-9,7.67,48.11,48.11,0,0,1-11,4.51,62.15,62.15,0,0,1-35.26-.89,53.94,53.94,0,0,1-5.6-2.23,51.46,51.46,0,0,1-5.3-2.91A44.52,44.52,0,0,1,81,102.38h0l.51.4a13.15,13.15,0,0,0-3.69-1.43c-1.41-.34-2.94-.59-4.55-1a22.91,22.91,0,0,1-2.47-.74,11.66,11.66,0,0,1-2.49-1.26,9.48,9.48,0,0,1-2.12-2,11.81,11.81,0,0,1-1.46-2.33,14.16,14.16,0,0,1-1.35-5.14,19.73,19.73,0,0,1,.35-5.11,28.75,28.75,0,0,1,3.67-9.13A45.2,45.2,0,0,1,80.75,61,59,59,0,0,1,98,53.05a123,123,0,0,1,18.41-3.88,92.31,92.31,0,0,1,18.88-.51A64.16,64.16,0,0,1,153.8,52.9a49.13,49.13,0,0,1,16.07,10.33,47.63,47.63,0,0,1,10.73,15.9c.63,1.48,1.17,3,1.66,4.52s.91,3.08,1.26,4.64l.13.58.13.63c.09.42.14.84.2,1.26a23.9,23.9,0,0,1,.18,2.53,24.57,24.57,0,0,1-4.42,14.35,19.08,19.08,0,0,1-3.61,3.8,17.43,17.43,0,0,1-4.64,2.64c-.42.15-.85.3-1.28.42l-1.11.3a2.63,2.63,0,0,0-1.07.62,1.62,1.62,0,0,0-.5.82l-.16.57c-.07.22-.13.44-.21.65-.15.44-.32.86-.5,1.28a17.13,17.13,0,0,1-3,4.58,21.54,21.54,0,0,1-4,3.44,33.33,33.33,0,0,1-9.24,4.11,55.48,55.48,0,0,1-9.62,1.83,69.65,69.65,0,0,1-9.69.32,44.76,44.76,0,0,1-4.94-.43,13.39,13.39,0,0,1-1.37-.25,8.06,8.06,0,0,1-.89-.25l-.16-.06-.19-.08a3.49,3.49,0,0,1-.61-.34,3.07,3.07,0,0,1-.61-.55,2.95,2.95,0,0,1,.28-4.12,2.81,2.81,0,0,1,.63-.44c.17-.09.3-.14.37-.17l.21-.08.19,0,.39-.12.79-.17a11.81,11.81,0,0,1,1.55-.16,15,15,0,0,1,5.57,1,25.85,25.85,0,0,1,4.64,2.24,43.62,43.62,0,0,1,7.69,6.06,53.41,53.41,0,0,1,6.23,7.3,35.5,35.5,0,0,1,2.52,4.08,16.59,16.59,0,0,1,1.73,4.5Z"/>
  </g>
</svg>
