<?xml version="1.0" encoding="utf-8"?>
<svg viewBox="0 0 1024 1024" xmlns="http://www.w3.org/2000/svg">
  <path class="cls-1" d="M 964.343 444.411 L 964.343 444.411 C 963.888 441.006 963.405 437.87 962.816 434.788 C 962.521 433.206 962.173 431.571 961.851 429.989 L 960.832 425.646 C 958.152 414.066 955.042 402.326 951.37 390.799 C 947.456 378.522 943.328 367.397 938.905 356.837 C 920.272 311.941 892.797 271.259 858.111 237.202 C 823.235 203.673 782.152 177.267 737.164 159.466 C 692.71 141.958 645.892 131.189 598.257 127.512 C 551.14 123.9 503.776 125.218 456.936 131.453 C 410.412 137.607 364.417 147.257 319.343 160.323 C 296.416 166.778 274.011 174.969 252.328 184.823 C 230.529 194.744 209.607 206.492 189.79 219.94 C 147.142 248.862 113.314 283.629 89.134 323.195 C 75.94 344.559 66.525 368.036 61.309 392.595 C 58.696 405.448 57.796 418.588 58.629 431.677 C 59.54 445.483 63.079 458.982 69.056 471.458 C 72.132 477.837 75.908 483.85 80.315 489.391 C 81.361 490.677 82.541 492.071 83.88 493.546 C 85.221 495.02 86.856 496.628 88.008 497.7 C 90.817 500.334 93.839 502.727 97.041 504.858 C 103.089 508.879 109.585 512.178 116.396 514.695 C 122.534 516.937 128.801 518.816 135.16 520.325 C 141.164 521.745 146.981 523.005 152.637 524.077 C 158.293 525.149 163.762 526.356 168.961 527.643 C 177.221 529.49 185.203 532.401 192.711 536.301 C 202.361 546.733 212.677 556.528 223.592 565.627 C 235.295 575.373 247.636 584.326 260.531 592.433 C 273.388 600.504 286.716 607.797 300.444 614.279 C 314.217 620.764 328.328 626.5 342.717 631.462 C 371.224 640.946 400.633 647.467 430.479 650.922 C 460.114 654.379 490.006 655.069 519.77 652.987 C 549.457 650.885 578.87 645.884 607.585 638.056 C 636.393 630.186 664.116 618.777 690.121 604.093 C 703.179 596.657 715.583 588.119 727.193 578.574 C 738.933 568.872 749.504 557.834 758.689 545.683 C 767.984 533.562 775.411 520.118 780.724 505.796 C 786.005 491.46 788.728 476.309 788.766 461.03 L 788.766 457.224 L 775.363 456.661 L 775.014 460.575 C 773.869 474.029 770.452 487.187 764.908 499.497 C 759.35 511.734 751.996 523.072 743.089 533.138 C 734.063 543.26 723.948 552.358 712.933 560.265 C 701.936 568.289 690.278 575.365 678.085 581.415 C 653.332 593.528 627.178 602.532 600.214 608.221 C 573.234 614.116 545.745 617.375 518.134 617.951 C 463.15 619.347 408.385 610.476 356.657 591.789 C 305.625 573.462 259.333 543.973 221.152 505.474 L 218.606 502.955 L 216.435 501.749 C 204.308 495.43 191.278 491.019 177.808 488.667 C 171.428 487.407 165.262 486.415 159.285 485.476 C 153.924 484.592 148.562 483.762 143.63 482.796 C 138.746 481.875 133.921 480.657 129.182 479.151 C 125.112 477.794 121.202 475.995 117.521 473.79 C 115.865 472.758 114.287 471.603 112.803 470.332 C 112.08 469.688 111.383 469.098 110.793 468.455 L 110.578 468.268 C 110.016 467.732 109.373 466.981 108.595 466.097 C 105.724 462.741 103.225 459.081 101.144 455.187 C 96.914 446.882 94.302 437.848 93.45 428.569 C 92.533 418.597 92.946 408.544 94.682 398.68 C 98.639 377.87 106.204 357.911 117.039 339.708 C 127.986 320.804 141.22 303.321 156.443 287.65 C 171.781 271.744 188.643 257.379 206.785 244.76 C 243.627 219.435 284.379 200.328 327.411 188.2 C 371.005 175.329 415.54 165.89 460.609 159.974 C 483.608 157.106 506.393 155.31 528.24 154.612 C 550.778 154.018 573.333 154.715 595.791 156.704 C 605.548 157.535 616.163 158.849 629.164 160.832 C 641.065 162.816 651.842 164.933 662.082 167.319 C 674.036 170.187 684.598 173.11 694.248 176.218 C 705.132 179.757 715.694 183.618 725.558 187.718 C 766.531 204.491 803.788 229.187 835.193 260.389 C 866.133 291.789 890.437 329.092 906.657 370.078 C 910.598 379.755 914.136 389.968 917.541 401.281 C 920.757 412.002 923.518 422.725 925.716 433.447 L 926.575 437.468 C 926.815 438.754 927.057 439.961 927.272 441.221 C 927.673 443.58 927.995 446.046 928.29 448.726 C 929.92 464.025 929.013 479.484 925.609 494.484 C 921.359 514.374 912.721 533.066 900.331 549.195 C 894.388 556.858 887.395 563.646 879.557 569.353 C 871.965 574.87 863.552 579.158 854.627 582.059 C 852.268 582.835 850.07 583.425 847.926 583.935 C 846.8 584.203 845.675 584.471 844.467 584.685 L 839.107 585.838 C 830.298 588.079 822.107 592.277 815.143 598.116 C 807.518 604.477 801.812 612.829 798.658 622.24 L 797.343 626.18 C 796.969 627.252 796.566 628.299 796.137 629.371 C 795.333 631.408 794.421 633.472 793.457 635.536 C 785.817 650.922 772.896 664.218 755.018 675.074 C 746.354 680.321 737.249 684.806 727.809 688.477 C 718.038 692.324 708.037 695.565 697.867 698.18 C 688.057 700.863 677.763 702.98 666.343 704.909 C 655.997 706.706 645.087 708.152 633.935 709.198 C 622.784 710.244 611.981 711.048 601.098 711.423 C 595.495 711.611 590.028 711.745 584.827 711.799 C 582.146 710.673 579.466 709.681 577.026 708.77 C 563.334 703.589 548.776 701.076 534.137 701.371 C 530.055 701.497 525.989 701.918 521.967 702.631 C 519.904 702.98 517.866 703.462 515.882 703.945 L 511.271 705.311 C 510.789 705.445 510.119 705.687 509.583 705.901 C 508.452 706.33 507.353 706.833 506.286 707.403 C 504.239 708.477 502.337 709.81 500.63 711.369 C 495.634 715.891 492.586 722.177 492.132 728.902 C 491.699 735.734 493.95 742.466 498.405 747.664 C 499.864 749.375 501.531 750.897 503.364 752.195 L 503.793 752.49 C 505.273 753.523 506.843 754.42 508.485 755.17 L 508.833 755.17 C 510.066 755.734 511.031 756.082 511.728 756.323 C 513.982 757.119 516.284 757.781 518.616 758.307 L 518.804 758.307 C 522.745 759.191 526.149 759.754 529.286 760.237 C 541.638 761.984 554.075 763.049 566.546 763.427 C 572.229 763.641 578.018 763.748 583.782 763.775 L 589.518 766.456 C 608.741 776.432 627.041 788.094 644.202 801.304 C 662.046 814.758 679.055 829.286 695.133 844.809 C 703.711 853.065 711.217 860.892 718.348 868.935 C 722.663 873.894 726.013 877.994 728.907 881.855 C 732.213 886.16 735.198 890.703 737.835 895.446 L 739.469 898.474 L 750.192 894.856 L 749.549 891.397 C 748.369 885.203 746.573 879.142 744.188 873.304 C 741.877 867.632 739.275 862.085 736.387 856.684 C 730.691 846.026 724.327 835.739 717.328 825.884 C 703.376 806.219 687.683 787.847 670.445 770.986 C 665.995 766.67 661.518 762.488 657.041 758.549 C 663.341 757.636 669.559 756.644 675.618 755.518 C 688.003 753.213 700.119 750.371 711.699 747.049 C 736.441 740.275 759.998 729.751 781.555 715.846 C 792.884 708.408 803.246 699.591 812.408 689.603 C 821.876 679.199 829.599 667.334 835.274 654.461 C 836.721 651.191 837.954 647.866 839.107 644.597 C 839.697 642.935 840.233 641.273 840.742 639.53 L 841.975 635.107 C 842.46 633.507 843.391 632.075 844.656 630.979 C 846.458 629.33 848.598 628.095 850.928 627.36 L 854.173 626.503 C 855.834 626.101 857.522 625.644 859.184 625.162 C 862.375 624.25 865.591 623.206 869.023 621.919 C 881.894 617.072 893.925 610.234 904.674 601.654 C 915.17 593.28 924.472 583.501 932.31 572.596 C 947.266 551.499 957.474 527.41 962.226 501.989 C 964.657 489.389 965.807 476.572 965.658 463.737 C 965.582 457.278 965.142 450.825 964.343 444.411 Z" style="fill: rgb(129, 130, 133);"/>
</svg>